<?xml version="1.0" encoding="iso-8859-1"?>
<!-- Generator: Adobe Illustrator 19.0.0, SVG Export Plug-In . SVG Version: 6.00 Build 0)  -->
<svg xmlns="http://www.w3.org/2000/svg" xmlns:xlink="http://www.w3.org/1999/xlink" version="1.1" id="Layer_1" x="0px" y="0px" viewBox="0 0 511.996 511.996" style="enable-background:new 0 0 511.996 511.996;" xml:space="preserve" width="512px" height="512px">
<g>
	<g>
		<g>
			<path d="M135.534,146.218c4.172-4.172,4.172-10.922,0-15.094c-4.156-4.156-10.921-4.156-15.078,0     c-4.172,4.172-4.172,10.922,0,15.094C124.612,150.374,131.378,150.374,135.534,146.218z" fill="#d2d5db"/>
			<path d="M178.206,146.218c4.156-4.172,4.156-10.922,0-15.094c-4.172-4.156-10.922-4.156-15.094,0     c-4.156,4.172-4.156,10.922,0,15.094C167.284,150.374,174.034,150.374,178.206,146.218z" fill="#d2d5db"/>
			<path d="M205.784,131.124c-4.156,4.172-4.156,10.922,0,15.094c4.172,4.156,10.922,4.156,15.094,0     c4.156-4.172,4.156-10.922,0-15.094C216.706,126.968,209.956,126.968,205.784,131.124z" fill="#d2d5db"/>
			<path d="M120.456,380.871c4.156,4.172,10.922,4.172,15.078,0c4.172-4.156,4.172-10.906,0-15.078     c-4.156-4.172-10.922-4.172-15.078,0C116.285,369.965,116.285,376.715,120.456,380.871z" fill="#d2d5db"/>
			<path d="M163.112,365.793c-4.156,4.172-4.156,10.922,0,15.094c4.172,4.156,10.922,4.156,15.094,0     c4.156-4.172,4.156-10.922,0-15.094C174.034,361.621,167.284,361.621,163.112,365.793z" fill="#d2d5db"/>
			<path d="M205.784,365.793c-4.156,4.172-4.156,10.922,0,15.078c4.172,4.172,10.922,4.172,15.094,0     c4.156-4.156,4.156-10.906,0-15.078C216.706,361.621,209.956,361.621,205.784,365.793z" fill="#d2d5db"/>
			<path d="M127.988,64h85.343c5.891,0,10.656-4.766,10.656-10.656s-4.766-10.672-10.656-10.672h-85.343     c-5.891,0-10.656,4.781-10.656,10.672S122.098,64,127.988,64z" fill="#d2d5db"/>
			<path d="M127.988,106.671h85.343c5.891,0,10.656-4.781,10.656-10.671c0-5.891-4.766-10.656-10.656-10.656h-85.343     c-5.891,0-10.656,4.766-10.656,10.656C117.332,101.89,122.098,106.671,127.988,106.671z" fill="#d2d5db"/>
			<path d="M213.331,405.34h-85.343c-5.891,0-10.656,4.766-10.656,10.656c0,5.906,4.766,10.672,10.656,10.672h85.343     c5.891,0,10.656-4.766,10.656-10.672C223.987,410.105,219.221,405.34,213.331,405.34z" fill="#d2d5db"/>
			<path d="M213.331,447.996h-85.343c-5.891,0-10.656,4.781-10.656,10.672s4.766,10.672,10.656,10.672h85.343     c5.891,0,10.656-4.781,10.656-10.672S219.221,447.996,213.331,447.996z" fill="#d2d5db"/>
			<path d="M128.003,223.998v25.172c-6.641,7.516-10.672,17.375-10.672,28.172c0,23.531,19.141,42.656,42.671,42.656     c23.516,0,42.656-19.125,42.656-42.656c0-10.797-4.031-20.656-10.656-28.172v-25.172c0-17.641-14.359-31.999-32-31.999     C142.347,191.999,128.003,206.357,128.003,223.998z M149.331,223.998c0-5.875,4.781-10.656,10.672-10.656     c5.875,0,10.656,4.781,10.656,10.656v12.031c-3.406-0.891-6.984-1.359-10.656-1.359c-3.688,0-7.266,0.469-10.672,1.359V223.998z      M160.003,255.998c11.75,0,21.328,9.578,21.328,21.344s-9.578,21.328-21.328,21.328c-11.766,0-21.343-9.562-21.343-21.328     S148.237,255.998,160.003,255.998z" fill="#d2d5db"/>
			<path d="M167.534,284.889c4.172-4.172,4.172-10.922,0-15.094c-4.156-4.156-10.922-4.156-15.078,0     c-4.172,4.172-4.172,10.922,0,15.094C156.612,289.045,163.378,289.045,167.534,284.889z" fill="#d2d5db"/>
			<path d="M291.118,131.124c-4.155,4.172-4.155,10.922,0,15.094c4.156,4.156,10.906,4.156,15.094,0     c4.156-4.172,4.156-10.922,0-15.094C302.024,126.968,295.274,126.968,291.118,131.124z" fill="#d2d5db"/>
			<path d="M333.774,131.124c-4.156,4.172-4.156,10.922,0,15.094c4.188,4.156,10.938,4.156,15.094,0     c4.156-4.172,4.156-10.922,0-15.094C344.712,126.968,337.962,126.968,333.774,131.124z" fill="#d2d5db"/>
			<path d="M376.462,131.124c-4.188,4.172-4.188,10.922,0,15.094c4.156,4.156,10.906,4.156,15.062,0     c4.188-4.172,4.188-10.922,0-15.094C387.368,126.968,380.618,126.968,376.462,131.124z" fill="#d2d5db"/>
			<path d="M291.118,365.793c-4.155,4.172-4.155,10.922,0,15.078c4.156,4.172,10.906,4.172,15.094,0     c4.156-4.156,4.156-10.906,0-15.078C302.024,361.621,295.274,361.621,291.118,365.793z" fill="#d2d5db"/>
			<path d="M333.774,365.793c-4.156,4.172-4.156,10.922,0,15.094c4.188,4.156,10.938,4.156,15.094,0     c4.156-4.172,4.156-10.922,0-15.094S337.962,361.621,333.774,365.793z" fill="#d2d5db"/>
			<path d="M376.462,365.793c-4.188,4.172-4.188,10.922,0,15.078c4.156,4.172,10.906,4.172,15.062,0     c4.188-4.156,4.188-10.906,0-15.078C387.368,361.621,380.618,361.621,376.462,365.793z" fill="#d2d5db"/>
			<path d="M426.649,0H255.986H85.332C79.441,0,74.66,4.781,74.66,10.672V501.34c0,5.891,4.781,10.656,10.672,10.656h170.654     h170.663c5.906,0,10.687-4.766,10.687-10.656V10.672C437.336,4.781,432.556,0,426.649,0z M245.33,64     c-5.89,0-10.671,4.781-10.671,10.672v42.671c0,5.891,4.781,10.656,10.671,10.656v255.997c-5.89,0-10.671,4.781-10.671,10.672     v42.672c0,5.891,4.781,10.656,10.671,10.656v42.672H95.988V21.344H245.33V64z M415.993,64c-5.906,0-10.656,4.781-10.656,10.672     v42.671c0,5.891,4.75,10.656,10.656,10.656v255.997c-5.906,0-10.656,4.781-10.656,10.672v42.672     c0,5.891,4.75,10.656,10.656,10.656v42.672H266.658V21.344h149.335V64z" fill="#d2d5db"/>
			<path d="M298.649,64h85.344c5.906,0,10.656-4.766,10.656-10.656s-4.75-10.672-10.656-10.672h-85.344     c-5.875,0-10.655,4.781-10.655,10.672S292.774,64,298.649,64z" fill="#d2d5db"/>
			<path d="M298.649,106.671h85.344c5.906,0,10.656-4.781,10.656-10.671c0-5.891-4.75-10.656-10.656-10.656h-85.344     c-5.875,0-10.655,4.766-10.655,10.656C287.994,101.89,292.774,106.671,298.649,106.671z" fill="#d2d5db"/>
			<path d="M298.649,426.668h85.344c5.906,0,10.656-4.766,10.656-10.672c0-5.891-4.75-10.656-10.656-10.656h-85.344     c-5.875,0-10.655,4.766-10.655,10.656C287.994,421.902,292.774,426.668,298.649,426.668z" fill="#d2d5db"/>
			<path d="M298.649,469.34h85.344c5.906,0,10.656-4.781,10.656-10.672s-4.75-10.672-10.656-10.672h-85.344     c-5.875,0-10.655,4.781-10.655,10.672S292.774,469.34,298.649,469.34z" fill="#d2d5db"/>
			<path d="M330.649,319.998c23.531,0,42.688-19.125,42.688-42.656c0-10.797-4.031-20.656-10.688-28.172v-25.172     c0-17.641-14.344-31.999-32-31.999c-17.625,0-32,14.358-32,31.999v25.172c-6.625,7.516-10.655,17.375-10.655,28.172     C287.994,300.873,307.118,319.998,330.649,319.998z M319.993,223.998c0-5.875,4.781-10.656,10.656-10.656     c5.906,0,10.688,4.781,10.688,10.656v12.031c-3.406-0.891-7-1.359-10.688-1.359c-3.656,0-7.25,0.469-10.656,1.359V223.998z      M330.649,255.998c11.781,0,21.344,9.578,21.344,21.344s-9.562,21.328-21.344,21.328c-11.75,0-21.312-9.562-21.312-21.328     S318.899,255.998,330.649,255.998z" fill="#d2d5db"/>
			<path d="M338.212,284.889c4.156-4.172,4.156-10.922,0-15.094c-4.188-4.156-10.938-4.156-15.094,0     c-4.156,4.172-4.156,10.922,0,15.094C327.274,289.045,334.024,289.045,338.212,284.889z" fill="#d2d5db"/>
		</g>
	</g>
</g>
<g>
</g>
<g>
</g>
<g>
</g>
<g>
</g>
<g>
</g>
<g>
</g>
<g>
</g>
<g>
</g>
<g>
</g>
<g>
</g>
<g>
</g>
<g>
</g>
<g>
</g>
<g>
</g>
<g>
</g>
</svg>
