<?xml version="1.0" encoding="iso-8859-1"?>
<!-- Generator: Adobe Illustrator 19.0.0, SVG Export Plug-In . SVG Version: 6.00 Build 0)  -->
<svg xmlns="http://www.w3.org/2000/svg" xmlns:xlink="http://www.w3.org/1999/xlink" version="1.1" id="Capa_1" x="0px" y="0px" viewBox="0 0 512 512" style="enable-background:new 0 0 512 512;" xml:space="preserve" width="512px" height="512px">
<g>
	<g>
		<path d="M422,196v180h30V211.234c0-5.37,1.102-10.452,2.827-15.234H422z" fill="#d2d5db"/>
	</g>
</g>
<g>
	<g>
		<rect x="90" y="106" width="212" height="60" fill="#d2d5db"/>
	</g>
</g>
<g>
	<g>
		<rect x="90" y="256" width="61" height="90" fill="#d2d5db"/>
	</g>
</g>
<g>
	<g>
		<path d="M392,451c0-154.75,0-263.15,0-420c0-8.291-6.709-15-15-15H15C6.709,16,0,22.709,0,31v390c0,41.353,33.647,75,75,75    h332.383C397.865,483.426,392,467.948,392,451z M60,241c0-8.291,6.709-15,15-15h91c8.291,0,15,6.709,15,15v120    c0,8.291-6.709,15-15,15H75c-8.291,0-15-6.709-15-15V241z M317,436H75c-8.291,0-15-6.709-15-15c0-8.291,6.709-15,15-15h242    c8.291,0,15,6.709,15,15C332,429.291,325.291,436,317,436z M317,376h-91c-8.291,0-15-6.709-15-15c0-8.291,6.709-15,15-15h91    c8.291,0,15,6.709,15,15C332,369.291,325.291,376,317,376z M317,316h-91c-8.291,0-15-6.709-15-15c0-8.291,6.709-15,15-15h91    c8.291,0,15,6.709,15,15C332,309.291,325.291,316,317,316z M317,256h-91c-8.291,0-15-6.709-15-15s6.709-15,15-15h91    c8.291,0,15,6.709,15,15S325.291,256,317,256z M332,181c0,8.291-6.709,15-15,15H75c-8.291,0-15-6.709-15-15V91    c0-8.291,6.709-15,15-15h242c8.291,0,15,6.709,15,15V181z" fill="#d2d5db"/>
	</g>
</g>
<g>
	<g>
		<path d="M497.234,196C488.82,196,482,202.821,482,211.234c0,74.622,0,120.033,0,194.766h-60v45c0,24.853,20.147,45,45,45    c24.853,0,45-20.147,45-45V210.766C512,202.61,505.39,196,497.234,196z" fill="#d2d5db"/>
	</g>
</g>
<g>
</g>
<g>
</g>
<g>
</g>
<g>
</g>
<g>
</g>
<g>
</g>
<g>
</g>
<g>
</g>
<g>
</g>
<g>
</g>
<g>
</g>
<g>
</g>
<g>
</g>
<g>
</g>
<g>
</g>
</svg>
