<?xml version="1.0" encoding="iso-8859-1"?>
<!-- Generator: Adobe Illustrator 19.0.0, SVG Export Plug-In . SVG Version: 6.00 Build 0)  -->
<svg xmlns="http://www.w3.org/2000/svg" xmlns:xlink="http://www.w3.org/1999/xlink" version="1.1" id="Capa_1" x="0px" y="0px" viewBox="0 0 512 512" style="enable-background:new 0 0 512 512;" xml:space="preserve" width="512px" height="512px">
<g>
	<g>
		<polygon points="316.53,347.551 255.24,285.981 199.626,337.928 122.145,261.205 217.535,171.247 219.349,169.536     185.894,135.827 194.478,127.244 136.228,68.995 0,205.224 58.249,263.473 67.672,254.049 108.703,295.079 115.635,343.612     215.03,443.005 292.384,443.005 378.521,358.579   " fill="#d2d5db"/>
	</g>
</g>
<g>
	<g>
		<polygon points="375.771,68.995 317.522,127.244 337.516,147.238 291.956,193.097 238.141,193.097 165.36,261.732     200.234,296.264 256,244.175 331.126,319.643 381.07,328.528 390.671,288 434.475,244.197 453.751,263.473 512,205.224   " fill="#d2d5db"/>
	</g>
</g>
<g>
</g>
<g>
</g>
<g>
</g>
<g>
</g>
<g>
</g>
<g>
</g>
<g>
</g>
<g>
</g>
<g>
</g>
<g>
</g>
<g>
</g>
<g>
</g>
<g>
</g>
<g>
</g>
<g>
</g>
</svg>
