<?xml version="1.0" encoding="iso-8859-1"?>
<!-- Generator: Adobe Illustrator 19.0.0, SVG Export Plug-In . SVG Version: 6.00 Build 0)  -->
<svg xmlns="http://www.w3.org/2000/svg" xmlns:xlink="http://www.w3.org/1999/xlink" version="1.1" id="Capa_1" x="0px" y="0px" viewBox="0 0 488.2 488.2" style="enable-background:new 0 0 488.2 488.2;" xml:space="preserve" width="512px" height="512px">
<g>
	<g>
		<g>
			<path d="M448.8,374.2c21.8,0,39.4-17.7,39.4-39.4V58c0-21.8-17.7-39.4-39.4-39.4H39.4C17.6,18.6,0,36.3,0,58v276.7     c0,21.8,17.7,39.4,39.4,39.4H200v49h-31.3c-5.2,0-9.5,4.2-9.5,9.5v27.5c0,5.2,4.2,9.5,9.5,9.5h150.9c5.2,0,9.5-4.2,9.5-9.5v-27.4     c0-5.2-4.2-9.5-9.5-9.5h-31.3v-49H448.8z M136.6,121.1c0-10,8.1-18,18-18h145V81.8c0-3.8,4.3-6.1,7.5-4l58.4,39.3     c2.8,1.9,2.8,6.1,0,8l-58.4,39.3c-3.2,2.1-7.5-0.1-7.5-4v-21.3H172.7v59.2c0,2.6-1.3,5.1-3.5,6.5l-28.4,19.1     c-1.8,1.2-4.3-0.1-4.3-2.3V121.1H136.6z M188.6,285v21.3c0,3.8-4.3,6.1-7.5,4L122.7,271c-2.8-1.9-2.8-6.1,0-8l58.4-39.3     c3.2-2.1,7.5,0.1,7.5,4V249h126.9v-59.2c0-2.6,1.3-5.1,3.5-6.5l28.4-19.1c1.8-1.2,4.3,0.1,4.3,2.3V267c0,10-8.1,18-18,18H188.6z" fill="#d2d5db"/>
		</g>
	</g>
</g>
<g>
</g>
<g>
</g>
<g>
</g>
<g>
</g>
<g>
</g>
<g>
</g>
<g>
</g>
<g>
</g>
<g>
</g>
<g>
</g>
<g>
</g>
<g>
</g>
<g>
</g>
<g>
</g>
<g>
</g>
</svg>
