<svg id="Capa_1" enable-background="new 0 0 512 512" height="512" viewBox="0 0 512 512" width="512" xmlns="http://www.w3.org/2000/svg"><path d="m504.5 185.106c-4.142 0-7.5 3.357-7.5 7.5v224.394c0 14.612-11.888 26.5-26.5 26.5h-429c-14.612 0-26.5-11.888-26.5-26.5v-33.138c0-4.143-3.358-7.5-7.5-7.5s-7.5 3.357-7.5 7.5v33.138c0 22.883 18.617 41.5 41.5 41.5h429c22.883 0 41.5-18.617 41.5-41.5v-224.394c0-4.142-3.358-7.5-7.5-7.5z" fill="#d2d5db"/><path d="m470.5 53.5h-214.5c-4.142 0-7.5 3.357-7.5 7.5s3.358 7.5 7.5 7.5h214.5c14.612 0 26.5 11.888 26.5 26.5v38.5h-89.016v-31.029c0-12.391-10.081-22.471-22.529-22.471-12.39 0-22.471 10.08-22.471 22.471v31.029h-347.984v-38.5c0-14.612 11.888-26.5 26.5-26.5h182.182c4.142 0 7.5-3.357 7.5-7.5s-3.358-7.5-7.5-7.5h-182.182c-22.883 0-41.5 18.617-41.5 41.5v256.49c0 4.143 3.358 7.5 7.5 7.5s7.5-3.357 7.5-7.5v-202.99h347.984c.216 159.293-.746 161.223.438 164.529l10.243 30.762c.074.224.159.443.254.658 4.429 10.038 18.693 10.055 23.13 0 .095-.215.18-.435.254-.658l10.243-30.762c1.078-3.009.213 1.51.438-164.529h89.016v11.836c0 4.143 3.358 7.5 7.5 7.5s7.5-3.357 7.5-7.5v-65.336c0-22.883-18.617-41.5-41.5-41.5zm-92.516 178.495h15v71.004h-15zm0-15v-94.494h15v18.267c-.002.077-.004.154-.004.232s.002.155.004.232v75.763zm0-114.524c0-4.119 3.352-7.471 7.529-7.471 4.119 0 7.471 3.352 7.471 7.471v5.03h-15zm7.5 229.336-4.598-13.808h9.195z" fill="#d2d5db"/><path d="m40.5 100.672c0 12.958 10.542 23.5 23.5 23.5s23.5-10.542 23.5-23.5-10.542-23.5-23.5-23.5-23.5 10.542-23.5 23.5zm32 0c0 4.687-3.813 8.5-8.5 8.5s-8.5-3.813-8.5-8.5 3.813-8.5 8.5-8.5 8.5 3.813 8.5 8.5z" fill="#d2d5db"/><path d="m97.5 100.672c0 12.958 10.542 23.5 23.5 23.5s23.5-10.542 23.5-23.5-10.542-23.5-23.5-23.5-23.5 10.542-23.5 23.5zm32 0c0 4.687-3.813 8.5-8.5 8.5s-8.5-3.813-8.5-8.5 3.813-8.5 8.5-8.5 8.5 3.813 8.5 8.5z" fill="#d2d5db"/><path d="m154.5 100.672c0 12.958 10.542 23.5 23.5 23.5s23.5-10.542 23.5-23.5-10.542-23.5-23.5-23.5-23.5 10.542-23.5 23.5zm32 0c0 4.687-3.813 8.5-8.5 8.5s-8.5-3.813-8.5-8.5 3.813-8.5 8.5-8.5 8.5 3.813 8.5 8.5z" fill="#d2d5db"/><path d="m147 266.943c6.341 0 11.5-5.159 11.5-11.5v-52c0-6.341-5.159-11.5-11.5-11.5h-52c-6.341 0-11.5 5.159-11.5 11.5v52c0 6.341 5.159 11.5 11.5 11.5zm-48.5-60h45v45h-45z" fill="#d2d5db"/><path d="m194 198.5h113.448c4.142 0 7.5-3.357 7.5-7.5s-3.358-7.5-7.5-7.5h-113.448c-4.142 0-7.5 3.357-7.5 7.5s3.358 7.5 7.5 7.5z" fill="#d2d5db"/><path d="m194 236.943h113.448c4.142 0 7.5-3.357 7.5-7.5s-3.358-7.5-7.5-7.5h-113.448c-4.142 0-7.5 3.357-7.5 7.5s3.358 7.5 7.5 7.5z" fill="#d2d5db"/><path d="m194 274.997h113.448c4.142 0 7.5-3.357 7.5-7.5s-3.358-7.5-7.5-7.5h-113.448c-4.142 0-7.5 3.357-7.5 7.5s3.358 7.5 7.5 7.5z" fill="#d2d5db"/><path d="m72.5 305.55c0 4.143 3.358 7.5 7.5 7.5h227.448c4.142 0 7.5-3.357 7.5-7.5s-3.358-7.5-7.5-7.5h-227.448c-4.142 0-7.5 3.357-7.5 7.5z" fill="#d2d5db"/><path d="m80 351.103h227.448c4.142 0 7.5-3.357 7.5-7.5s-3.358-7.5-7.5-7.5h-227.448c-4.142 0-7.5 3.357-7.5 7.5s3.358 7.5 7.5 7.5z" fill="#d2d5db"/><path d="m80 389.155h352.984c4.142 0 7.5-3.357 7.5-7.5s-3.358-7.5-7.5-7.5h-352.984c-4.142 0-7.5 3.357-7.5 7.5s3.358 7.5 7.5 7.5z" fill="#d2d5db"/></svg>