<svg width="47" height="47" viewBox="0 0 47 47" fill="none" xmlns="http://www.w3.org/2000/svg">
<g clip-path="url(#clip0)">
<path d="M23.5 47C18.8521 47 14.3087 45.6218 10.4441 43.0395C6.57954 40.4573 3.56749 36.7871 1.78883 32.4931C0.010167 28.199 -0.455211 23.4739 0.451541 18.9154C1.35829 14.3568 3.59645 10.1695 6.88299 6.883C10.1695 3.59647 14.3568 1.35831 18.9154 0.451556C23.4739 -0.455196 28.199 0.0101823 32.4931 1.78884C36.7871 3.5675 40.4573 6.57955 43.0395 10.4441C45.6217 14.3087 47 18.8521 47 23.5C47 29.7326 44.5241 35.7099 40.117 40.117C35.7099 44.5241 29.7326 47 23.5 47ZM23.5 2.08001C19.2635 2.08001 15.1222 3.33627 11.5997 5.68993C8.07718 8.04359 5.33172 11.3889 3.7105 15.3029C2.08927 19.2169 1.66508 23.5238 2.49157 27.6788C3.31807 31.8339 5.35813 35.6506 8.35377 38.6462C11.3494 41.6419 15.1661 43.6819 19.3212 44.5084C23.4762 45.3349 27.7831 44.9107 31.6971 43.2895C35.6111 41.6683 38.9564 38.9228 41.3101 35.4003C43.6637 31.8778 44.92 27.7365 44.92 23.5C44.9094 17.8223 42.6493 12.3802 38.6345 8.36546C34.6198 4.35072 29.1777 2.09058 23.5 2.08001Z" fill="#43506B"/>
<path d="M20.7 34.6099H25.17V23.3999H28.29L28.63 19.6499H25.17V17.5099C25.17 16.6199 25.35 16.2799 26.17 16.2799H28.6V12.3899H25.5C22.17 12.3899 20.67 13.8499 20.67 16.6599V19.6599H18.37V23.4599H20.7V34.6099Z" fill="#43506B"/>
</g>
<defs>
<clipPath id="clip0">
<rect width="47" height="47" fill="white"/>
</clipPath>
</defs>
</svg>
