<svg width="47" height="47" viewBox="0 0 47 47" fill="none" xmlns="http://www.w3.org/2000/svg">
<g clip-path="url(#clip0)">
<path d="M23.5 0C18.8521 0 14.3087 1.37825 10.4441 3.96046C6.57954 6.54268 3.56749 10.2129 1.78883 14.5069C0.010167 18.801 -0.455211 23.5261 0.451541 28.0846C1.35829 32.6432 3.59645 36.8305 6.88299 40.117C10.1695 43.4035 14.3568 45.6417 18.9154 46.5485C23.4739 47.4552 28.199 46.9898 32.4931 45.2112C36.7871 43.4325 40.4573 40.4205 43.0395 36.5559C45.6217 32.6913 47 28.1479 47 23.5C47 17.2674 44.5241 11.2901 40.117 6.88299C35.7099 2.47589 29.7326 0 23.5 0V0ZM23.5 44.92C19.2635 44.92 15.1222 43.6637 11.5997 41.3101C8.07718 38.9564 5.33172 35.6111 3.7105 31.6971C2.08927 27.7831 1.66508 23.4762 2.49157 19.3212C3.31807 15.1661 5.35813 11.3494 8.35377 8.35377C11.3494 5.35813 15.1661 3.31807 19.3212 2.49158C23.4762 1.66508 27.7831 2.08927 31.6971 3.7105C35.6111 5.33173 38.9564 8.07718 41.3101 11.5997C43.6637 15.1222 44.92 19.2635 44.92 23.5C44.92 29.1809 42.6633 34.6292 38.6462 38.6462C34.6292 42.6633 29.1809 44.92 23.5 44.92Z" fill="#43506B"/>
<path d="M33.55 17.2601C33.2787 16.5582 32.8637 15.9207 32.3315 15.3886C31.7994 14.8564 31.1619 14.4414 30.46 14.1701C29.6405 13.8499 28.7698 13.6805 27.89 13.6701C26.76 13.6701 26.4 13.6101 23.53 13.6101C20.65 13.6101 20.29 13.6601 19.17 13.7201C18.2912 13.7402 17.4222 13.9093 16.6 14.2201C15.8905 14.482 15.2482 14.8988 14.72 15.4401C14.1776 15.9635 13.7605 16.6028 13.5 17.3101C13.1902 18.1153 13.0211 18.9677 13 19.8301V24.1901C13 27.0601 13 27.4301 13.06 28.5501C13.0767 29.4283 13.2424 30.2973 13.55 31.1201C13.8201 31.8255 14.2358 32.4661 14.7699 33.0002C15.304 33.5343 15.9446 33.95 16.65 34.2201C17.4728 34.5277 18.3418 34.6934 19.22 34.7101C20.34 34.7101 20.7 34.7701 23.58 34.7701C26.46 34.7701 26.81 34.7701 27.94 34.7101C28.8182 34.6934 29.6872 34.5277 30.51 34.2201C31.1994 33.953 31.821 33.5363 32.33 33.0001C32.8713 32.4719 33.2881 31.8296 33.55 31.1201C33.8702 30.3006 34.0396 29.4299 34.05 28.5501C34.05 27.4301 34.11 27.0701 34.11 24.1901C34.11 21.3101 34.11 20.9601 34.05 19.8301C34.0396 18.9503 33.8702 18.0796 33.55 17.2601ZM32.14 28.5401C32.1374 29.2235 32.012 29.901 31.77 30.5401C31.5924 30.9591 31.3302 31.337 31 31.6501C30.6608 32.0006 30.2474 32.2706 29.79 32.4401C29.1482 32.6725 28.4725 32.7975 27.79 32.8101C26.68 32.8101 26.34 32.8701 23.52 32.8701C20.7 32.8701 20.36 32.8701 19.25 32.8101C18.5671 32.8015 17.8908 32.6764 17.25 32.4401C16.7806 32.2714 16.3539 32.0017 16 31.6501C15.6493 31.3072 15.3794 30.8904 15.21 30.4301C14.9737 29.7894 14.8486 29.113 14.84 28.4301C14.84 27.3201 14.78 26.9901 14.78 24.1601C14.78 21.3301 14.78 21.0101 14.84 19.8901C14.8526 19.2076 14.9776 18.5319 15.21 17.8901C15.3795 17.4328 15.6495 17.0193 16 16.6801C16.3709 16.3557 16.8127 16.1228 17.29 16.0001C17.9292 15.7581 18.6066 15.6328 19.29 15.6301C20.4 15.5801 20.73 15.5201 23.56 15.5201C26.38 15.5201 26.72 15.5201 27.83 15.5801C28.5129 15.5887 29.1892 15.7139 29.83 15.9501C30.2874 16.1196 30.7008 16.3896 31.04 16.7401C31.3787 17.0971 31.6288 17.5287 31.77 18.0001C32.0063 18.6409 32.1314 19.3172 32.14 20.0001C32.14 21.1201 32.2 21.4501 32.2 24.2701C32.2 27.0901 32.2 27.4301 32.14 28.5401Z" fill="#43506B"/>
<path d="M23.53 18.76C22.4549 18.766 21.4057 19.0903 20.5149 19.6921C19.624 20.2939 18.9314 21.1462 18.5246 22.1413C18.1178 23.1364 18.0149 24.2297 18.229 25.2833C18.4431 26.3368 18.9645 27.3033 19.7275 28.0607C20.4905 28.8181 21.4608 29.3325 22.5158 29.5388C23.5709 29.7452 24.6635 29.6343 25.6556 29.2201C26.6477 28.806 27.4949 28.1072 28.0901 27.2119C28.6853 26.3167 29.002 25.2651 29 24.19C28.9974 23.4743 28.8538 22.7662 28.5775 22.1059C28.3012 21.4457 27.8975 20.8464 27.3896 20.3422C26.8817 19.8379 26.2794 19.4387 25.6172 19.1672C24.9549 18.8958 24.2457 18.7574 23.53 18.76ZM23.53 27.76C22.8318 27.762 22.1488 27.5569 21.5672 27.1707C20.9856 26.7844 20.5316 26.2344 20.2626 25.5902C19.9936 24.9459 19.9216 24.2363 20.0559 23.5512C20.1902 22.8661 20.5246 22.2361 21.0169 21.7411C21.5091 21.246 22.1372 20.908 22.8215 20.7699C23.5059 20.6317 24.2159 20.6996 24.8616 20.9649C25.5074 21.2303 26.06 21.6812 26.4495 22.2606C26.8391 22.84 27.048 23.5219 27.05 24.22C27.0513 24.6836 26.9613 25.1429 26.7851 25.5717C26.6089 26.0005 26.35 26.3903 26.0232 26.7191C25.6963 27.0478 25.3079 27.3089 24.8801 27.4875C24.4523 27.6661 23.9936 27.7587 23.53 27.76Z" fill="#43506B"/>
<path d="M30.42 18.5201C30.4187 18.3559 30.3851 18.1936 30.321 18.0425C30.257 17.8913 30.1638 17.7542 30.0468 17.6391C29.9298 17.524 29.7913 17.433 29.6391 17.3714C29.487 17.3098 29.3242 17.2788 29.16 17.2801C28.9088 17.2821 28.6639 17.3585 28.4561 17.4997C28.2484 17.6409 28.0872 17.8405 27.9929 18.0733C27.8986 18.3061 27.8755 18.5616 27.9264 18.8076C27.9774 19.0536 28.1001 19.2789 28.2791 19.4551C28.4581 19.6313 28.6853 19.7505 28.9321 19.7975C29.1788 19.8446 29.434 19.8174 29.6653 19.7195C29.8966 19.6216 30.0936 19.4572 30.2315 19.2473C30.3694 19.0374 30.442 18.7912 30.44 18.5401L30.42 18.5201Z" fill="#43506B"/>
</g>
<defs>
<clipPath id="clip0">
<rect width="47" height="47" fill="white"/>
</clipPath>
</defs>
</svg>
