<svg width="42" height="43" viewBox="0 0 42 43" fill="none" xmlns="http://www.w3.org/2000/svg">
<path d="M39.8474 31.0896L34.2698 25.3748C33.9533 25.0111 33.5698 24.7149 33.1413 24.5034C32.7128 24.2919 32.2478 24.1692 31.7729 24.1422C31.298 24.1153 30.8226 24.1847 30.3739 24.3464C29.9253 24.5082 29.5122 24.7591 29.1584 25.0848C28.6497 25.5359 28.2796 26.1285 28.0928 26.7907C27.7699 27.6725 27.1482 28.4059 26.3412 28.8569C25.5342 29.3079 24.5958 29.4465 23.6973 29.2472C19.7347 28.2237 14.3403 22.9012 13.3413 18.6364C13.1049 17.7163 13.2217 16.7384 13.6677 15.9038C14.1137 15.0692 14.8549 14.4415 15.7388 14.1499C16.661 13.8728 17.4383 13.2323 17.9002 12.3689C18.3622 11.5054 18.4711 10.4895 18.203 9.54395C17.9975 8.89057 17.6304 8.30286 17.1374 7.83804L11.5432 2.08912C10.8046 1.38894 9.83547 1 8.82927 1C7.82308 1 6.85392 1.38894 6.11539 2.08912L2.38589 5.97859C-1.39357 10.0557 2.78548 20.8371 12.1425 30.4755C21.4996 40.1139 32.122 44.5663 36.068 40.4892L39.8474 36.5997C40.2116 36.2444 40.5016 35.817 40.6997 35.3434C40.8978 34.8698 41 34.3599 41 33.8446C41 33.3294 40.8978 32.8195 40.6997 32.3459C40.5016 31.8723 40.2116 31.4449 39.8474 31.0896Z" stroke="#43506B" stroke-width="2" stroke-miterlimit="10"/>
</svg>
