<svg width="47" height="47" viewBox="0 0 47 47" fill="none" xmlns="http://www.w3.org/2000/svg">
<g clip-path="url(#clip0)">
<path d="M23.5 47C18.8521 47 14.3087 45.6218 10.4441 43.0395C6.57955 40.4573 3.5675 36.7871 1.78884 32.4931C0.0101823 28.199 -0.455196 23.4739 0.451556 18.9154C1.35831 14.3568 3.59647 10.1695 6.883 6.883C10.1695 3.59647 14.3568 1.35831 18.9154 0.451556C23.4739 -0.455196 28.199 0.0101823 32.4931 1.78884C36.7871 3.5675 40.4573 6.57955 43.0395 10.4441C45.6218 14.3087 47 18.8521 47 23.5C47 29.7326 44.5241 35.7099 40.117 40.117C35.7099 44.5241 29.7326 47 23.5 47ZM23.5 2.00001C19.2477 2.00001 15.0909 3.26096 11.5553 5.62341C8.01959 7.98586 5.26388 11.3437 3.6366 15.2723C2.00932 19.2009 1.58354 23.5239 2.41313 27.6945C3.24271 31.865 5.29039 35.696 8.29721 38.7028C11.304 41.7096 15.135 43.7573 19.3056 44.5869C23.4762 45.4165 27.7991 44.9907 31.7277 43.3634C35.6563 41.7361 39.0142 38.9804 41.3766 35.4448C43.7391 31.9091 45 27.7523 45 23.5C44.9974 17.7987 42.7313 12.3316 38.6999 8.30014C34.6684 4.26868 29.2014 2.00266 23.5 2.00001Z" fill="#FF0000"/>
<path d="M29.67 16.25H17.33C16.1566 16.2605 15.0344 16.7319 14.2056 17.5626C13.3768 18.3933 12.9078 19.5166 12.9 20.69V26.85C12.9078 28.0234 13.3768 29.1467 14.2056 29.9774C15.0344 30.8081 16.1566 31.2795 17.33 31.29H29.67C30.8434 31.2795 31.9656 30.8081 32.7944 29.9774C33.6232 29.1467 34.0922 28.0234 34.1 26.85V20.69C34.077 19.5213 33.6033 18.4068 32.7777 17.5793C31.9521 16.7519 30.8386 16.2756 29.67 16.25ZM26.67 24.04L20.93 26.74C20.83 26.85 20.61 26.74 20.61 26.53V20.9C20.61 20.69 20.83 20.58 20.93 20.69L26.67 23.61C26.7115 23.6529 26.7348 23.7103 26.7348 23.77C26.7348 23.8297 26.7115 23.8871 26.67 23.93C26.6482 23.9584 26.621 23.9822 26.59 24L26.67 24.04Z" fill="#FF0000"/>
</g>
<defs>
<clipPath id="clip0">
<rect width="47" height="47" fill="white"/>
</clipPath>
</defs>
</svg>
