<?xml version="1.0" encoding="utf-8"?>
<!-- Generator: Adobe Illustrator 23.0.0, SVG Export Plug-In . SVG Version: 6.00 Build 0)  -->
<svg version="1.1" id="Слой_1" xmlns="http://www.w3.org/2000/svg" xmlns:xlink="http://www.w3.org/1999/xlink" x="0px" y="0px"
	 viewBox="0 0 110 110" style="enable-background:new 0 0 110 110;" xml:space="preserve">
<style type="text/css">
	.st0{fill:#F5EB05;}
	.st1{fill:none;stroke:#000000;stroke-width:3;stroke-miterlimit:10;}
	.st2{stroke:#000000;stroke-width:3;stroke-miterlimit:10;}
	.st3{fill:#FFFFFF;}
</style>
<rect x="43.7" y="22.1" class="st0" width="28.88" height="28.88"/>
<rect x="62" y="57.96" class="st0" width="28.88" height="28.88"/>
<rect x="25.32" y="57.96" class="st0" width="28.88" height="28.88"/>
<polyline class="st1" points="25.32,88.22 25.32,22.1 12.36,22.1 7.13,22.1 "/>
<rect x="25.32" y="57.96" class="st1" width="29.36" height="29.36"/>
<line class="st1" x1="40.44" y1="66.07" x2="40.44" y2="57.96"/>
<rect x="61.17" y="57.96" class="st1" width="29.36" height="29.36"/>
<line class="st1" x1="76.29" y1="66.07" x2="76.29" y2="57.96"/>
<rect x="43.46" y="22.59" class="st1" width="29.36" height="29.36"/>
<line class="st1" x1="58.58" y1="30.69" x2="58.58" y2="22.59"/>
<line class="st2" x1="25.32" y1="87.32" x2="97" y2="87.32"/>
<g>
	<circle class="st3" cx="38.22" cy="86.85" r="5.82"/>
</g>
<circle class="st3" cx="79.94" cy="86.85" r="5.82"/>
<circle class="st1" cx="37.75" cy="86.85" r="5.82"/>
<circle class="st1" cx="79.94" cy="86.85" r="5.82"/>
</svg>
