<svg xmlns="http://www.w3.org/2000/svg" data-name="Слой 1" viewBox="0 0 74.4 74.9">
  <defs/>
  <path fill="#f5eb05" d="M37.2 4.8l20.4 5.7 7.6-8.1h5L72.3 5l-1.1 3.5-7.1 8 5.5 19.7-4.5 4-10-15.8-8 6.9 1.3 6.8s-1 2.4-1.6 2-5.8-7.8-5.8-7.8l-7.6-4.9 2.8-2 5.1.4 9.5-7L47 16 33.5 9z"/>
  <path d="M71.8 11.3a6.5 6.5 0 00.2-9.2A6.2 6.2 0 0067.7.3a6.7 6.7 0 00-4.8 2l-5.6 6-20.3-6L33 6.5a2.8 2.8 0 000 4l.1.1 14.6 8-2.1 2.3a29.3 29.3 0 00-16-4.7 29.4 29.4 0 00-3.2.2v-.1l-.2.1A29.2 29.2 0 1058 52a29.3 29.3 0 00.7-7.2 3.3 3.3 0 00-.1-2 29 29 0 00-4.4-12.8l-.9-1.4 2.2-2 8 14.7.3.2a2.8 2.8 0 003.9 0l4.2-4.2L65.9 17zm-56.7 55A25.5 25.5 0 014.5 41.6 15.3 15.3 0 018.4 43l-.1.5c-.2 1.6-.6 4 1.3 5.4 1.7 1.3 3.3.1 4-.5l1 .7a11.9 11.9 0 011.7 1.4l-.4 1.2c-.6 1.6-1.2 3.2 0 4.4a21.8 21.8 0 011.7 3.3v1a10.6 10.6 0 010 1.6s-2.2 2.8-2 3.5zm39.4-15.2a25.4 25.4 0 01-24.8 19.8 25.6 25.6 0 01-12.2-3 20.4 20.4 0 003.4-4 6.4 6.4 0 00.4-3.7v-.6a1 1 0 010 .2c.3-1.3-1.5-4.3-2.3-5.5 0-.4.2-1 .4-1.3a16.5 16.5 0 00.6-1.8c.5-2.2-1.6-3.7-3.2-5a11 11 0 01-1.2-.9c-.7-.8-2-1.4-3.8 0l.2-1.1.2-1.2c.2-2.1-2.1-3.8-6.8-5A25.3 25.3 0 0123 20.8a11.8 11.8 0 00-.8 3.2c0 .7-.2 1.3-.3 1.9-.3 2.3-.7 4.8 2.5 6.3a11.8 11.8 0 004 1 9.9 9.9 0 011.2.1 11 11 0 010 2.2 5 5 0 00.1 2 16.6 16.6 0 006.6 10.3 8.2 8.2 0 01-2.4 1l-1.3.2c-1.7.2-4 .5-5 3.2a2.9 2.9 0 00.1 2.6c.8 1.3 2.3 1.5 3.4 1.7h.6a9.5 9.5 0 005 2 4.3 4.3 0 003-1.1c.4-.3 2.1-.3 3-.3 1.7 0 3.4 0 4.5-1a2.7 2.7 0 00.7-2c0-1.5 3-3.2 5.3-4.5l1.7-1-.4 2.5zm.6-7.1a17.5 17.5 0 01-3.7 2.4c-3.1 1.8-6.6 3.8-7 7h-1.6c-2 0-4 0-5.4 1.2-.7.6-2.5-.3-3.6-1a4 4 0 00-2-.8 11.8 11.8 0 011.3-.2l1.5-.2c1.7-.3 6-2.1 6.3-4.5a2.3 2.3 0 00-1.3-2.4 12.7 12.7 0 01-6.3-9v-.8c0-1.7.3-5-2.3-5.8a11.2 11.2 0 00-2.2-.4 8.2 8.2 0 01-2.9-.7 1.4 1.4 0 01-.5-.3 7.2 7.2 0 01.1-2l.3-2.1a7.5 7.5 0 012-4.4h1.8A25.6 25.6 0 0143 23.6l-.2.2a8.9 8.9 0 00-.9 1l-6.5-1.7-2.9 2.9a2.5 2.5 0 000 3.6l.2.2 7.6 3.8.2.3 3.9 7.5.2.2a2.5 2.5 0 003.6 0L51 39l-1.7-6.7a9 9 0 001-.8l.4-.4.5.8a25.4 25.4 0 014 12.2zm12.7-7.8L66 38l-9.5-17.4-8.7 8.1a5 5 0 01-1.4 1l-1.3.7 1.9 7.4-.3.3-3.2-6.3-1-1-6.3-3.2.3-.3 7.3 1.9.7-1.4a5 5 0 011-1.3l8-8.8-17.2-9.5 1.8-1.8 20.3 6L65.5 5a3 3 0 012.2-.9 2.5 2.5 0 011.8.7 2.8 2.8 0 01-.2 4l-7.6 7.1zm0 0"/>
</svg>
