<svg height="480pt" viewBox="0 -44 480.00002 480" width="480pt" xmlns="http://www.w3.org/2000/svg"><g fill="#f5eb05"><path d="m120 328c0 8.835938-7.164062 16-16 16s-16-7.164062-16-16 7.164062-16 16-16 16 7.164062 16 16zm0 0"/><path d="m312 88v-80h-304v320h56c0-22.089844 17.910156-40 40-40s40 17.910156 40 40h168zm0 0"/><path d="m312 88v136h160v-72l-112-64zm128 104h-96v-72h7.496094l88.503906 50.566406zm0 0"/><path d="m408 328c0 8.835938-7.164062 16-16 16s-16-7.164062-16-16 7.164062-16 16-16 16 7.164062 16 16zm0 0"/><path d="m312 328h40c0-22.089844 17.910156-40 40-40s40 17.910156 40 40h40v-104h-160zm0 0"/></g><path d="m8 376c-4.417969 0-8 3.582031-8 8s3.582031 8 8 8h464c4.417969 0 8-3.582031 8-8s-3.582031-8-8-8zm0 0" fill="#000000"/><path d="m104 304c-13.253906 0-24 10.746094-24 24s10.746094 24 24 24 24-10.746094 24-24-10.746094-24-24-24zm0 32c-4.417969 0-8-3.582031-8-8s3.582031-8 8-8 8 3.582031 8 8-3.582031 8-8 8zm0 0" fill="#000000"/><path d="m392 304c-13.253906 0-24 10.746094-24 24s10.746094 24 24 24 24-10.746094 24-24-10.746094-24-24-24zm0 32c-4.417969 0-8-3.582031-8-8s3.582031-8 8-8 8 3.582031 8 8-3.582031 8-8 8zm0 0" fill="#000000"/><path d="m476 145.054688-112-64c-1.21875-.695313-2.597656-1.058594-4-1.054688h-40v-72c0-4.417969-3.582031-8-8-8h-304c-4.417969 0-8 3.582031-8 8v320c0 4.417969 3.582031 8 8 8h48.71875c3.882812 23.085938 23.871094 39.992188 47.28125 39.992188s43.398438-16.90625 47.28125-39.992188h193.4375c3.882812 23.085938 23.871094 39.992188 47.28125 39.992188s43.398438-16.90625 47.28125-39.992188h32.71875c4.417969 0 8-3.582031 8-8v-176c.003906-2.863281-1.519531-5.511719-4-6.945312zm-118.128906-49.054688 106.128906 60.640625v59.359375h-144v-120zm-341.871094-80h288v304h-152.664062c0-.183594-.105469-.351562-.144532-.535156-.4375-2.410156-1.054687-4.78125-1.855468-7.097656-.144532-.414063-.304688-.800782-.457032-1.246094-.851562-2.273438-1.871094-4.480469-3.054687-6.601563-.175781-.304687-.367188-.589843-.542969-.894531-1.273438-2.175781-2.714844-4.25-4.3125-6.199219l-.136719-.152343c-1.617187-1.925782-3.386719-3.714844-5.289062-5.363282-.214844-.191406-.40625-.390625-.621094-.566406-1.871094-1.566406-3.859375-2.988281-5.945313-4.253906-.351562-.21875-.695312-.433594-1.054687-.640625-2.09375-1.210938-4.273437-2.257813-6.523437-3.136719l-1.191407-.441406c-2.34375-.847656-4.75-1.515625-7.199219-1.992188-.320312-.0625-.640624-.09375-.960937-.152344-5.324219-.96875-10.785156-.96875-16.109375 0-.320312.058594-.640625.089844-.960938.152344-2.449218.476563-4.855468 1.144532-7.199218 1.992188l-1.191406.441406c-2.25.878906-4.429688 1.925781-6.523438 3.136719-.359375.207031-.703125.421875-1.054688.640625-2.085937 1.265625-4.074218 2.6875-5.945312 4.253906-.214844.175781-.40625.375-.621094.566406-1.902344 1.648438-3.671875 3.4375-5.289062 5.363282l-.136719.152343c-1.597656 1.949219-3.039063 4.027344-4.3125 6.207031-.175781.296876-.367187.582032-.535156.886719-1.191407 2.117188-2.214844 4.324219-3.0625 6.601563-.152344.414062-.3125.800781-.457031 1.246094-.800782 2.316406-1.421876 4.6875-1.855469 7.097656-.039063.183594-.113281.351562-.144531.535156h-40.648438zm88 344c-17.671875 0-32-14.328125-32-32s14.328125-32 32-32 32 14.328125 32 32-14.328125 32-32 32zm288 0c-17.671875 0-32-14.328125-32-32s14.328125-32 32-32 32 14.328125 32 32-14.328125 32-32 32zm72-40h-24.664062c0-.183594-.105469-.351562-.144532-.535156-.4375-2.410156-1.054687-4.78125-1.855468-7.097656-.144532-.414063-.304688-.800782-.457032-1.246094-.851562-2.273438-1.871094-4.480469-3.054687-6.601563-.175781-.304687-.367188-.589843-.542969-.894531-1.273438-2.175781-2.714844-4.25-4.3125-6.199219l-.136719-.152343c-1.617187-1.925782-3.386719-3.714844-5.289062-5.363282-.214844-.191406-.40625-.390625-.621094-.566406-1.871094-1.566406-3.859375-2.988281-5.945313-4.253906-.351562-.21875-.695312-.433594-1.054687-.640625-2.09375-1.210938-4.273437-2.257813-6.523437-3.136719l-1.191407-.441406c-2.34375-.847656-4.75-1.515625-7.199219-1.992188-.320312-.0625-.640624-.09375-.960937-.152344-5.324219-.96875-10.785156-.96875-16.109375 0-.320312.058594-.640625.089844-.960938.152344-2.449218.476563-4.855468 1.144532-7.199218 1.992188l-1.191406.441406c-2.25.878906-4.429688 1.925781-6.523438 3.136719-.359375.207031-.703125.421875-1.054688.640625-2.085937 1.265625-4.074218 2.6875-5.945312 4.253906-.214844.175781-.40625.375-.621094.566406-1.902344 1.648438-3.671875 3.4375-5.289062 5.363282l-.136719.152343c-1.597656 1.949219-3.039063 4.027344-4.3125 6.207031-.175781.296876-.367187.582032-.535156.886719-1.191407 2.117188-2.214844 4.324219-3.0625 6.601563-.152344.414062-.3125.800781-.457031 1.246094-.800782 2.316406-1.421876 4.6875-1.855469 7.097656-.039063.183594-.113281.351562-.144531.535156h-24.648438v-88h144zm0 0" fill="#000000"/><path d="m344 200h96c4.417969 0 8-3.582031 8-8v-21.433594c.003906-2.863281-1.519531-5.511718-4-6.941406l-88.527344-50.570312c-1.21875-.695313-2.597656-1.058594-4-1.054688h-7.472656c-4.417969 0-8 3.582031-8 8v72c0 4.417969 3.582031 8 8 8zm8-70.496094 80 45.695313v8.800781h-80zm0 0" fill="#000000"/></svg>