<?xml version="1.0" encoding="utf-8"?>
<!-- Generator: Adobe Illustrator 21.0.0, SVG Export Plug-In . SVG Version: 6.00 Build 0)  -->
<svg version="1.1" id="Слой_1" xmlns="http://www.w3.org/2000/svg" xmlns:xlink="http://www.w3.org/1999/xlink" x="0px" y="0px"
	 viewBox="0 0 20 20" style="enable-background:new 0 0 20 20;" xml:space="preserve">
<style type="text/css">
	.st0{fill:#000;}
</style>
<path class="st0" d="M20,10.1l-3.6-4.4h-3V2.9H0v12.6h2.7c0,0.1-0.1,0.2-0.1,0.3c0,0.7,0.6,1.2,1.2,1.2c0.7,0,1.2-0.6,1.2-1.2
	c0-0.1,0-0.2-0.1-0.3h6.4h1.9h1.2c0,0.1-0.1,0.2-0.1,0.3c0,0.7,0.6,1.2,1.2,1.2c0.7,0,1.2-0.6,1.2-1.2c0-0.1,0-0.2-0.1-0.3H20V10.1z
	 M11.5,5.7v8H1.9V4.8h9.6V5.7z M18.1,13.6h-4.7V7.6h2.1l2.6,3.2V13.6z"/>
</svg>
