<svg viewBox="0 -3 448 447" xmlns="http://www.w3.org/2000/svg"><path d="m144 120.5h40v16h-40zm0 0"/><path d="m298.28125 382.164062c-3.929688-3.929687-5.855469-5.664062-10.402344-5.664062-4.542968 0-6.398437 1.734375-10.335937 5.65625-5.28125 6.542969-13.242188 10.34375-21.652344 10.34375-8.40625 0-16.367187-3.800781-21.652344-10.34375-3.917969-3.921875-5.839843-5.65625-10.335937-5.65625s-6.398438 1.734375-10.328125 5.65625c-5.28125 6.542969-13.238281 10.34375-21.644531 10.34375-8.410157 0-16.367188-3.800781-21.648438-10.34375-3.882812-3.921875-5.808594-5.65625-10.28125-5.65625s-6.398438 1.734375-10.335938 5.65625c-5.347656 6.464844-13.273437 10.25-21.664062 10.34375-4.730469.082031-9.390625-1.152344-13.464844-3.558594 5 11.847656 16.605469 19.550782 29.464844 19.558594h160c12.875-.015625 24.492188-7.730469 29.496094-19.59375-4.082032 2.421875-8.753906 3.664062-13.496094 3.59375-8.40625-.085938-16.351562-3.863281-21.71875-10.335938zm0 0"/><path d="m176 40.5c4.417969 0 8-3.582031 8-8s3.582031-8 8-8h32c4.417969 0 8-3.582031 8-8v-16h-48c-4.417969 0-8 3.582031-8 8s-3.582031 8-8 8h-16c-4.417969 0-8 3.582031-8 8v16zm0 0"/><path d="m184 56.5h-40v16h40zm0 0"/><path d="m380 72.5 12-16h-21.753906l4 16zm0 0"/><path d="m320 152.5h-208v40h208zm0 0"/><path d="m304 344.5h-160c-13.96875.050781-26.28125 9.171875-30.398438 22.519531 1.503907 1.273438 2.824219 2.59375 4.0625 3.824219 3.910157 3.921875 5.839844 5.65625 10.328126 5.65625 4.488281 0 6.398437-1.734375 10.34375-5.65625 5.28125-6.542969 13.238281-10.34375 21.648437-10.34375 8.40625 0 16.367187 3.800781 21.648437 10.34375 3.917969 3.921875 5.847657 5.65625 10.335938 5.65625s6.398438-1.734375 10.335938-5.65625c5.28125-6.542969 13.234374-10.34375 21.644531-10.34375 8.40625 0 16.363281 3.800781 21.644531 10.34375 3.917969 3.921875 5.847656 5.65625 10.335938 5.65625 4.484374 0 6.398437-1.734375 10.34375-5.65625 5.289062-6.539062 13.25-10.339844 21.664062-10.339844 8.410156 0 16.371094 3.800782 21.664062 10.339844 3.925782 3.929688 5.863282 5.664062 10.398438 5.664062s6.398438-1.734374 10.398438-5.664062c1.226562-1.214844 2.59375-2.511719 4.097656-3.785156-4.117188-13.394532-16.484375-22.542969-30.496094-22.558594zm0 0"/><path d="m184 232.5c0-4.417969 3.582031-8 8-8h48c4.417969 0 8 3.582031 8 8v24h72v-48h-208v48h72zm80-8h16v16h-16zm-96 16h-16v-16h16zm0 0"/><path d="m144 88.5h40v16h-40zm0 0"/><path d="m386.246094 168.5h43.507812l-21.753906-33.351562zm0 0"/><path d="m430.199219 128.5h-7.429688l9.285157 14.230469zm0 0"/><path d="m408 61.835938-8 10.664062h16zm0 0"/><path d="m391.023438 88.5-3.136719 24h40.226562l-3.136719-24zm0 0"/><path d="m441.753906 72.5 4-16h-21.753906l12 16zm0 0"/><path d="m437.503906 184.5h-16.023437l21.054687 38.609375zm0 0"/><path d="m383.945312 142.730469 9.285157-14.230469h-7.429688zm0 0"/><path d="m408 193.203125-34.519531 63.296875h69.039062zm0 0"/><path d="m373.464844 223.109375 21.054687-38.609375h-16.023437zm0 0"/><path d="m288 272.5h16v56h-16zm0 0"/><path d="m16 120.5h40v56h-40zm0 0"/><path d="m56 56.5h-40v16h40zm0 0"/><path d="m16 88.5h40v16h-40zm0 0"/><path d="m328 272.5h-8v58.800781c21.957031 7.847657 35.101562 30.339844 31.15625 53.320313-3.945312 22.984375-23.839844 39.804687-47.15625 39.878906h-160c-13.910156.097656-27.164062-5.886719-36.292969-16.378906-9.132812-10.496094-13.222656-24.453125-11.203125-38.214844 0-.078125 0-.160156.039063-.246094 2.566406-17.628906 14.671875-32.390625 31.457031-38.359375v-58.800781h-128v168h448v-168zm-288 128h-16v-16h16zm8-72h-16v-16h16zm24 96h-16v-16h16zm8-136h16v16h-16zm288 16h-16v-16h16zm24 104h-16v-16h16zm24-72h-16v-16h16zm0 0"/><path d="m96 192.5h-80v64h80zm-48 32h-16v-16h16zm32 0h-16v-16h16zm0 0"/><path d="m144 272.5h16v56h-16zm0 0"/><path d="m200 240.5h32v16h-32zm0 0"/><path d="m176 272.5v56h96v-56zm0 0"/><path d="m56 32.5c0-4.417969 3.582031-8 8-8h32c4.417969 0 8-3.582031 8-8v-16h-48c-4.417969 0-8 3.582031-8 8s-3.582031 8-8 8h-16c-4.417969 0-8 3.582031-8 8v16h32c4.417969 0 8-3.582031 8-8zm0 0"/></svg>
