<?xml version="1.0" encoding="iso-8859-1"?>
<!-- Generator: Adobe Illustrator 19.0.0, SVG Export Plug-In . SVG Version: 6.00 Build 0)  -->
<svg version="1.1" id="Capa_1" xmlns="http://www.w3.org/2000/svg" xmlns:xlink="http://www.w3.org/1999/xlink" x="0px" y="0px"
	 viewBox="0 0 512 512" style="enable-background:new 0 0 512 512;" xml:space="preserve">
<g>
	<g>
		<g>
			<path d="M32,464V48c0-8.837,7.163-16,16-16h240v64c0,17.673,14.327,32,32,32h64v48h32v-64c0.025-4.253-1.645-8.341-4.64-11.36
				l-96-96C312.341,1.645,308.253-0.024,304,0H48C21.49,0,0,21.491,0,48v416c0,26.51,21.49,48,48,48h112v-32H48
				C39.164,480,32,472.837,32,464z"/>
			<path d="M336,256h-64c-17.673,0-32,14.327-32,32v128h32v-48h64v48h32V288C368,270.327,353.673,256,336,256z M336,336h-64v-48h64
				V336z"/>
			<path d="M192,256h-80c-8.837,0-16,7.163-16,16v144h32v-64h9.44l59.36,59.36l22.56-22.56l-36.8-36.8H192c17.673,0,32-14.327,32-32
				v-32C224,270.327,209.673,256,192,256z M192,320h-64v-32h64V320z"/>
			<path d="M512,320v-32c0-17.673-14.327-32-32-32h-80c-8.837,0-16,7.163-16,16v144h32v-64h9.44l59.36,59.36l22.56-22.56l-36.8-36.8
				H480C497.673,352,512,337.673,512,320z M416,320v-32h64v32H416z"/>
		</g>
	</g>
</g>
<g>
</g>
<g>
</g>
<g>
</g>
<g>
</g>
<g>
</g>
<g>
</g>
<g>
</g>
<g>
</g>
<g>
</g>
<g>
</g>
<g>
</g>
<g>
</g>
<g>
</g>
<g>
</g>
<g>
</g>
</svg>
