<?xml version="1.0" encoding="UTF-8"?>
<svg viewBox="0 0 184.75931 101.10771" xmlns="http://www.w3.org/2000/svg">
 <g transform="translate(-246.66 -471.58)" fill="#fff" stroke="#000" stroke-dashoffset="3.003" stroke-linecap="round" stroke-linejoin="round">
  <path d="m257.67 472.58c-5 1-10.302 0.37245-10 12.371v75.629c0 6 2.2796 11.701 11.047 9.9245l121.95 1.0755c8.9938 0.57574 10.375-1.0606 16-7.2434l30.296-33.54c5.2466-6.2497 3.9867-14.349-0.28147-19.277l-30.015-33.939c-6.103-6.4567-8.6217-4.6217-13.247-5z" stroke-width="2"/>
  <path transform="translate(-445.19 -34.346)" d="m867.68 556.19a7.3376 7.1769 0 1 1 -14.675 0 7.3376 7.1769 0 1 1 14.675 0z"/>
  <path d="m267.17 482.72h111.75a7.7595 7.7595 0 0 1 7.7595 7.7595v62.131a7.7595 7.7595 0 0 1 -7.7595 7.7595h-111.75a7.7595 7.7595 0 0 1 -7.7595 -7.7595v-62.131a7.7595 7.7595 0 0 1 7.7595 -7.7595"/>
 </g>
</svg>
