<svg width="800" height="800" viewBox="0 0 800 800" fill="none" xmlns="http://www.w3.org/2000/svg">
<path d="M700 131.25H100C62.05 131.3 31.3 162.05 31.25 200V600C31.3 637.95 62.05 668.7 100 668.75H700C737.95 668.7 768.7 637.95 768.75 600V200C768.7 162.05 737.95 131.3 700 131.25ZM731.25 600C731.225 617.25 717.25 631.225 700 631.25H100C82.75 631.225 68.775 617.25 68.75 600V200C68.775 182.75 82.75 168.775 100 168.75H700C717.25 168.775 731.225 182.75 731.25 200V600ZM250 531.25H150C139.65 531.25 131.25 539.65 131.25 550C131.25 560.35 139.65 568.75 150 568.75H250C260.35 568.75 268.75 560.35 268.75 550C268.75 539.65 260.35 531.25 250 531.25ZM500 531.25H350C339.65 531.25 331.25 539.65 331.25 550C331.25 560.35 339.65 568.75 350 568.75H500C510.35 568.75 518.75 560.35 518.75 550C518.75 539.65 510.35 531.25 500 531.25ZM600 431.25H150C139.65 431.25 131.25 439.65 131.25 450C131.25 460.35 139.65 468.75 150 468.75H600C610.35 468.75 618.75 460.35 618.75 450C618.75 439.65 610.35 431.25 600 431.25ZM650 231.25H500C489.65 231.25 481.25 239.65 481.25 250V350C481.25 360.35 489.65 368.75 500 368.75H650C660.35 368.75 668.75 360.35 668.75 350V250C668.75 239.65 660.35 231.25 650 231.25ZM631.25 331.25H518.75V268.75H631.25V331.25Z" fill="black"/>
<rect x="518" y="268" width="113" height="63" fill="#F7E808"/>
</svg>
