<svg id="Слой_1" data-name="Слой 1" xmlns="http://www.w3.org/2000/svg" viewBox="0 0 74.37 74.88"><defs><style>.cls-1{fill:none;}.cls-1,.cls-2{stroke:#000;stroke-linejoin:round;stroke-width:3.69px;}.cls-2{fill:#f5eb05;}</style></defs><title>1</title><polyline class="cls-1" points="9.59 32.35 9.59 2.51 27.98 2.51 62.44 2.51 62.44 37.12"/><polygon class="cls-2" points="30.44 26.45 38.28 22.56 45.19 26.45 45.19 2.51 30.44 2.51 30.44 26.45"/><polygon class="cls-1" points="12.05 72.37 2.7 72.37 2.7 38.2 12.05 38.2 12.05 66.24 12.05 72.37"/><path class="cls-1" d="M12,42.93H40.18a13.61,13.61,0,0,1-3.84,9.38,20.08,20.08,0,0,1-10,5.38H39.69c3.67,0.56,8.23-2.39,8.23-2.39L64.37,43s4.17-1.7,6.24,1,0.48,5.89.48,5.89S56.7,61.22,52.87,64.17a10.87,10.87,0,0,1-7.67,2.36H12"/></svg>