<?xml version="1.0" encoding="UTF-8" standalone="no"?>
<svg
   xmlns:dc="http://purl.org/dc/elements/1.1/"
   xmlns:cc="http://creativecommons.org/ns#"
   xmlns:rdf="http://www.w3.org/1999/02/22-rdf-syntax-ns#"
   xmlns:svg="http://www.w3.org/2000/svg"
   xmlns="http://www.w3.org/2000/svg"
   viewBox="0 0 1102.6667 429.33334"
   height="429.33334"
   width="1102.6667"
   xml:space="preserve"
   id="svg2"
   version="1.1"><metadata
     id="metadata8"><rdf:RDF><cc:Work
         rdf:about=""><dc:format>image/svg+xml</dc:format><dc:type
           rdf:resource="http://purl.org/dc/dcmitype/StillImage" /></cc:Work></rdf:RDF></metadata><defs
     id="defs6"><clipPath
       id="clipPath18"
       clipPathUnits="userSpaceOnUse"><path
         id="path16"
         d="M 0,322 H 827 V 0 H 0 Z" /></clipPath></defs><g
     transform="matrix(1.3333333,0,0,-1.3333333,0,429.33333)"
     id="g10"><g
       id="g12"><g
         clip-path="url(#clipPath18)"
         id="g14"><g
           transform="translate(480.3735,212.2246)"
           id="g20"><path
             id="path22"
             style="fill:#000000;fill-opacity:1;fill-rule:nonzero;stroke:none"
             d="m 0,0 h -7.685 l -15.306,-59.41 c -1.237,-4.966 -2.109,-9.571 -2.584,-13.694 -0.188,1.995 -0.454,4.068 -0.789,6.183 -0.369,2.301 -0.931,4.829 -1.672,7.511 L -42.884,-0.147 -42.92,0 h -7.542 l -4.314,-96.635 -0.007,-0.199 h 5.791 l 2.919,65.964 c 0.185,3.77 0.302,7.544 0.346,11.178 0.048,3.742 0.071,6.749 0.071,9.185 h 0.058 c 0.366,-3.338 0.827,-6.438 1.375,-9.219 0.555,-2.82 1.206,-5.741 1.945,-8.684 l 13.737,-53.017 0.038,-0.139 h 5.427 l 13.915,53.156 c 0.828,3.218 1.508,6.276 2.017,9.102 0.5,2.779 0.982,5.785 1.433,8.938 h 0.065 v -8.975 c 0,-3.057 0.096,-6.746 0.281,-10.97 l 2.914,-66.338 0.008,-0.181 H 4.315 L 0.007,-0.183 Z" /></g><g
           transform="translate(526.2173,152.5859)"
           id="g24"><path
             id="path26"
             style="fill:#000000;fill-opacity:1;fill-rule:nonzero;stroke:none"
             d="m 0,0 v -19.711 c -1.284,-3.763 -3.064,-7.013 -5.3,-9.664 -2.221,-2.642 -4.95,-3.976 -8.113,-3.976 -3.35,0 -6.051,1.379 -8.035,4.109 -2.004,2.737 -3.018,6.637 -3.018,11.59 0,6.145 1.427,10.672 4.243,13.451 C -17.4,-1.409 -13.06,0 -7.307,0 Z m 6.9,-31.366 c -0.278,2.422 -0.417,4.867 -0.417,7.264 v 38.164 c 0,6.958 -1.556,12.163 -4.631,15.467 -3.075,3.313 -7.56,4.983 -13.323,4.983 -3.987,0 -7.448,-0.725 -10.286,-2.167 -2.837,-1.443 -4.983,-3.117 -6.379,-4.984 l -0.058,-0.078 1.947,-6.429 0.222,0.317 c 1.639,2.374 3.763,4.25 6.315,5.561 2.553,1.326 5.325,1.992 8.239,1.992 3.806,0 6.7,-1.207 8.598,-3.601 C -0.968,22.716 0,18.759 0,13.369 V 4.813 h -7.446 c -7.602,0 -13.483,-1.956 -17.478,-5.808 -3.997,-3.858 -6.026,-9.623 -6.026,-17.139 0,-6.398 1.509,-11.466 4.485,-15.042 2.986,-3.592 6.907,-5.408 11.667,-5.408 3.539,0 6.614,0.994 9.136,2.953 2.355,1.836 4.37,4.317 5.994,7.383 0.175,-2.199 0.418,-3.957 0.713,-5.264 0.321,-1.426 0.623,-2.622 0.904,-3.549 l 0.041,-0.134 h 6.099 l -0.093,0.254 c -0.45,1.26 -0.824,3.141 -1.096,5.575" /></g><g
           transform="translate(567.208,119.377)"
           id="g28"><path
             id="path30"
             style="fill:#000000;fill-opacity:1;fill-rule:nonzero;stroke:none"
             d="m 0,0 c -3.093,0 -5.67,0.692 -7.666,2.046 -1.988,1.36 -3.691,3.475 -5.053,6.276 v 39.613 c 0.731,1.812 1.611,3.595 2.612,5.28 1.006,1.687 2.141,3.203 3.375,4.474 1.231,1.282 2.57,2.321 3.978,3.096 1.399,0.763 2.887,1.148 4.42,1.148 4.064,0 7.3,-2.574 9.614,-7.66 C 13.617,49.142 14.803,41.877 14.803,32.7 14.803,21.591 13.432,13.259 10.727,7.937 8.044,2.669 4.437,0 0,0 m 16.545,58.117 c -1.583,3.017 -3.564,5.401 -5.889,7.071 -2.336,1.687 -4.987,2.533 -7.882,2.533 -3.922,0 -7.231,-1.344 -9.848,-4.004 -2.419,-2.465 -4.421,-5.267 -5.959,-8.343 l -0.519,10.782 -0.007,0.183 h -5.781 v -91.976 h 6.621 V 0.506 c 1.27,-1.583 2.926,-2.923 4.929,-3.986 2.191,-1.16 4.624,-1.753 7.237,-1.753 6.605,0 11.982,3.225 15.98,9.594 3.982,6.339 5.996,16.061 5.996,28.899 0,5.07 -0.42,9.777 -1.255,13.977 -0.826,4.21 -2.046,7.866 -3.623,10.88" /></g><g
           transform="translate(637.0308,185.418)"
           id="g32"><path
             id="path34"
             style="fill:#000000;fill-opacity:1;fill-rule:nonzero;stroke:none"
             d="M 0,0 0.209,0.298 H -6.359 L -29.528,-32.195 V 0.298 h -6.618 v -70.325 h 6.618 v 35.792 l 23.942,-35.709 0.058,-0.083 h 7.392 l -24.83,37.658 z" /></g><g
           transform="translate(661.0244,181.8701)"
           id="g36"><path
             id="path38"
             style="fill:#000000;fill-opacity:1;fill-rule:nonzero;stroke:none"
             d="m 0,0 c 1.712,0 3.357,-0.534 4.893,-1.579 1.537,-1.057 2.867,-2.729 3.958,-4.976 1.1,-2.26 1.884,-5.165 2.341,-8.637 0.454,-3.437 0.552,-7.534 0.291,-12.194 h -25.305 c 0.292,8.907 1.774,15.769 4.41,20.404 C -6.779,-2.354 -3.608,0 0,0 m 17.677,-32.444 c 0.552,6.169 0.504,11.673 -0.14,16.349 -0.65,4.668 -1.778,8.636 -3.35,11.787 -1.581,3.16 -3.612,5.567 -6.032,7.15 C 5.728,4.429 2.985,5.228 0,5.228 c -2.982,0 -5.75,-0.822 -8.221,-2.455 -2.465,-1.627 -4.631,-4.054 -6.446,-7.217 -1.803,-3.147 -3.233,-7.012 -4.252,-11.499 -1.016,-4.478 -1.529,-9.65 -1.529,-15.379 0,-11.542 1.756,-20.609 5.228,-26.942 3.486,-6.37 9.03,-9.604 16.47,-9.604 2.689,0 5.119,0.403 7.213,1.192 2.089,0.784 3.809,1.706 5.107,2.73 1.587,1.117 2.953,2.442 4.07,3.924 l 0.063,0.083 -2.262,5.573 -0.194,-0.307 c -0.913,-1.45 -2.064,-2.698 -3.431,-3.703 -1.181,-0.994 -2.66,-1.875 -4.394,-2.607 -1.72,-0.726 -3.754,-1.097 -6.033,-1.097 -5.08,0 -8.898,2.54 -11.349,7.524 -2.458,5.01 -3.809,12.388 -4.003,21.942 h 31.624 z" /></g><g
           transform="translate(684.29,185.7158)"
           id="g40"><path
             id="path42"
             style="fill:#000000;fill-opacity:1;fill-rule:nonzero;stroke:none"
             d="m 0,0 v -5.233 h 16.377 v -65.092 h 6.62 V -5.233 H 39.236 V 0 Z" /></g><g
           transform="translate(247.0181,124.2295)"
           id="g44"><path
             id="path46"
             style="fill:#000000;fill-opacity:1;fill-rule:nonzero;stroke:none"
             d="m 0,0 h -19.401 c 1.81,2.981 3.301,6.512 4.477,10.579 1.175,4.074 2.126,8.39 2.848,12.957 0.724,4.567 1.222,9.229 1.493,13.98 0.275,4.746 0.408,9.245 0.408,13.497 v 1.356 l 10.175,0 z m 10.72,61.047 h -30.392 v -5.964 c 0,-4.255 -0.067,-8.731 -0.204,-13.436 -0.137,-4.701 -0.519,-9.442 -1.155,-14.241 -0.632,-4.797 -1.556,-9.548 -2.778,-14.249 C -25.032,8.455 -26.726,4.068 -28.898,0 h -4.206 v -22.518 h 9.634 V -7.773 H 7.577 v -14.745 h 8.569 V 0 H 10.72 Z" /></g><g
           transform="translate(299.25,156.791)"
           id="g48"><path
             id="path50"
             style="fill:#000000;fill-opacity:1;fill-rule:nonzero;stroke:none"
             d="m 0,0 h -17.907 c 0.179,3.073 0.496,5.926 0.95,8.545 0.454,2.627 1.084,4.907 1.898,6.847 0.813,1.949 1.809,3.466 2.986,4.548 1.172,1.092 2.532,1.63 4.07,1.63 2.17,0 3.935,-1.469 5.291,-4.409 1.357,-2.939 2.215,-7.081 2.578,-12.415 0,-0.629 0.019,-1.219 0.066,-1.766 C -0.022,2.44 0,1.944 0,1.491 Z m -7.597,30.255 c -3.798,0 -7.056,-1.11 -9.771,-3.328 -2.711,-2.212 -4.95,-5.152 -6.711,-8.812 -1.767,-3.668 -3.08,-7.869 -3.936,-12.62 -0.862,-4.751 -1.288,-9.7 -1.288,-14.86 0,-10.673 2.123,-18.947 6.379,-24.82 4.249,-5.885 9.902,-8.824 16.957,-8.824 3.435,0 6.534,0.472 9.292,1.422 2.757,0.952 5.268,2.063 7.529,3.329 l -1.223,7.733 c -1.267,-0.541 -3.006,-1.111 -5.221,-1.701 -2.218,-0.584 -4.366,-0.881 -6.444,-0.881 -5.519,0 -9.567,2.1 -12.144,6.305 -2.577,4.205 -3.866,10.063 -3.866,17.571 h 29.17 v 6.007 c 0,11.03 -1.719,19.358 -5.154,25.009 -3.44,5.649 -7.96,8.47 -13.569,8.47" /></g><g
           transform="translate(395.7324,124.5654)"
           id="g52"><path
             id="path54"
             style="fill:#000000;fill-opacity:1;fill-rule:nonzero;stroke:none"
             d="m 0,0 c -2.086,-0.584 -4.116,-0.882 -6.106,-0.882 -5.25,0 -9.137,2.353 -11.67,7.058 -2.532,4.706 -3.798,11.173 -3.798,19.401 0,3.525 0.272,6.988 0.815,10.376 0.543,3.391 1.309,6.398 2.308,9.024 0.994,2.622 2.259,4.746 3.798,6.378 1.534,1.628 3.258,2.441 5.155,2.441 1.628,0 3.231,-0.497 4.815,-1.495 1.583,-0.995 3.006,-2.217 4.275,-3.66 l 5.563,9.36 c -1.901,1.356 -4.049,2.442 -6.446,3.26 -2.396,0.81 -5.088,1.219 -8.072,1.219 -3.345,0 -6.467,-0.949 -9.358,-2.85 -2.9,-1.901 -5.383,-4.566 -7.466,-8.005 -2.08,-3.438 -3.73,-7.599 -4.951,-12.486 -1.22,-4.877 -1.83,-10.307 -1.83,-16.279 0,-10.853 2.145,-19.17 6.446,-24.958 4.293,-5.797 9.922,-8.685 16.889,-8.685 3.254,0 6.171,0.471 8.748,1.427 2.58,0.947 4.907,2.057 6.991,3.324 L 5.019,1.7 C 3.752,1.159 2.078,0.59 0,0" /></g><g
           transform="translate(143.9546,162.8955)"
           id="g56"><path
             id="path58"
             style="fill:#ff0000;fill-opacity:1;fill-rule:nonzero;stroke:none"
             d="m 0,0 h -5.701 c -2.353,0 -4.612,0.43 -6.785,1.275 -2.169,0.866 -4.114,2.229 -5.831,4.12 -1.718,1.891 -3.099,4.296 -4.137,7.222 -1.042,2.917 -1.562,6.489 -1.562,10.719 0,4.313 0.475,8.029 1.426,11.135 0.947,3.094 2.213,5.636 3.798,7.621 1.582,1.972 3.392,3.411 5.426,4.311 2.035,0.904 4.14,1.353 6.31,1.353 H 0 Z m -17.708,54.81 c -3.481,-1.449 -6.535,-3.596 -9.158,-6.448 -2.624,-2.849 -4.703,-6.347 -6.238,-10.513 -1.539,-4.159 -2.306,-8.952 -2.306,-14.376 0,-7.056 1.376,-13.142 4.137,-18.248 2.758,-5.111 7.347,-9.211 13.772,-12.285 l -23.596,-39.379 h 12.346 L -7.056,-8.814 H 0 V -46.439 H 10.716 V 56.983 H -6.648 c -3.892,0 -7.578,-0.729 -11.06,-2.173" /></g><g
           transform="translate(195.7651,157.7402)"
           id="g60"><path
             id="path62"
             style="fill:#000000;fill-opacity:1;fill-rule:nonzero;stroke:none"
             d="m 0,0 h -15.437 v 27.536 h -10.856 v -68.82 h 10.856 V -9.229 H 0 v -32.055 h 10.716 v 68.82 H 0 Z" /></g><g
           transform="translate(357.7456,185.2764)"
           id="g64"><path
             id="path66"
             style="fill:#000000;fill-opacity:1;fill-rule:nonzero;stroke:none"
             d="m 0,0 h -11.531 l -14.787,-30.388 -1.221,-1.358 V 0 h -10.854 v -69.867 h 10.854 v 35.952 l 1.221,-1.491 16.687,-34.461 H 2.444 l -19.535,38.399 z" /></g></g></g></g></svg>