<svg id="Слой_1" data-name="Слой 1" xmlns="http://www.w3.org/2000/svg" viewBox="0 0 74.37 74.88"><defs><style>.cls-1{fill:#f5eb05;}</style></defs><title>2</title><path class="cls-1" d="M14,38.9V56.36L37.18,68.16,60.64,56.5V37.7L49.57,42.77,37.18,37.7S24.7,44,24.07,43.62,14,38.9,14,38.9Z"/><path d="M73.53,29.41l-9.34-4.82,9.34-4.82a1.55,1.55,0,0,0,0-2.74L50.31,4.63a1.55,1.55,0,0,0-1.44,0l-11.68,6-11.68-6a1.55,1.55,0,0,0-1.44,0L0.82,17a1.55,1.55,0,0,0,0,2.74l9.34,4.82L0.84,29.41a1.55,1.55,0,0,0,0,2.74l11.57,6.17V56.48a1.55,1.55,0,0,0,.82,1.37l23.24,12.4a1.55,1.55,0,0,0,1.46,0l23.24-12.4A1.55,1.55,0,0,0,62,56.48V38.33l11.57-6.17a1.55,1.55,0,0,0,0-2.74h0Zm-24-21.66L69.48,18.37l-8.67,4.48L40.56,12.4ZM4.88,18.37L24.8,7.75l9,4.65L13.56,22.85Zm0,12.44,8.67-4.48L33.81,36.79l-9,4.65ZM35.63,66.29L15.49,55.55V40l8.57,4.57a1.55,1.55,0,0,0,1.44,0l10.13-5.23v27ZM37.18,35L16.93,24.59,37.18,14.14,57.43,24.59ZM58.87,55.55L38.73,66.29v-27l10.13,5.23a1.55,1.55,0,0,0,1.44,0L58.87,40V55.55ZM49.57,41.44l-9-4.65L60.81,26.34l8.67,4.48Zm0,0"/></svg>