<svg xmlns="http://www.w3.org/2000/svg" width="320" height="320"><title>logo-php</title><desc>Created with Sketch.</desc><g fill="none"><g fill="#8993BE" fill-rule="nonzero"><path d="M10 232.02l22.75-115.16h52.6c22.75 1.42 34.13 12.8 34.13 32.7 0 34.12-27.02 54.03-51.2 52.6H42.7L37 232.02H10zm38.4-51.18h17.05c12.8-1.42 24.17-5.7 25.6-29.86 0-8.53-7.12-12.8-17.07-12.8H55.5l-7.1 42.66zm65.8 21.32L136.93 87h27l-5.67 29.86h25.6c22.74 1.42 31.27 12.8 28.43 27l-9.96 58.3H173.9l9.96-52.6c1.42-7.1 1.42-11.38-8.53-11.38H154l-12.8 63.98h-27zm86.32 29.86l22.75-115.16h52.6c22.76 1.42 34.13 12.8 34.13 32.7 0 34.12-27 54.03-51.2 52.6h-25.58l-5.7 29.86h-27zm38.4-51.18h17.05c12.8-1.42 24.17-5.7 25.6-29.86 0-8.53-7.12-12.8-17.07-12.8h-18.48l-7.1 42.66z"/></g></g></svg>