<svg viewBox="0 0 110 110" fill="none" xmlns="http://www.w3.org/2000/svg">
<path d="M33.0423 74.6464H42.2877C43.5624 74.6464 44.599 73.6098 44.599 72.3351V67.7124H30.731V72.3351C30.731 73.6098 31.7676 74.6464 33.0423 74.6464ZM33.0423 70.0237H42.2877L42.2888 72.3351H33.0423V70.0237Z" fill="black"/>
<path d="M51.533 58.467H49.2217V60.7784H51.533V58.467Z" fill="black"/>
<path d="M46.9103 58.467H39.9763V60.7784H46.9103V58.467Z" fill="black"/>
<path d="M70.9667 53.8443C71.0961 53.4815 71.1793 53.0955 71.1793 52.6887V30.731H73.4907V19.1743H36.5093V30.731H38.8207V52.6887C38.8207 53.0955 38.9039 53.4815 39.0333 53.8443H19.1743V65.401H21.4857V87.3587C21.4857 89.2702 23.0412 90.8257 24.9527 90.8257H50.3773C52.2888 90.8257 53.8443 89.2702 53.8443 87.3587V65.401H56.1557V87.3587C56.1557 89.2702 57.7112 90.8257 59.6227 90.8257H85.0474C86.9588 90.8257 88.5144 89.2702 88.5144 87.3587V65.401H90.8257V53.8443H70.9667ZM38.8207 28.4197V21.4857H71.1793V28.4197H38.8207ZM51.533 87.3587C51.533 87.9966 51.0141 88.5144 50.3773 88.5144H24.9527C24.3159 88.5144 23.797 87.9966 23.797 87.3587V65.401H51.533V87.3587ZM53.8443 63.0897H21.4857V56.1557H42.2877H53.8443V63.0897ZM53.8443 53.8443H42.2877C41.6509 53.8443 41.132 53.3266 41.132 52.6887V30.731H68.868V52.6887C68.868 53.3266 68.3491 53.8443 67.7123 53.8443H56.1557H53.8443ZM86.203 87.3587C86.203 87.9966 85.6841 88.5144 85.0474 88.5144H59.6227C58.9859 88.5144 58.467 87.9966 58.467 87.3587V65.401H86.203V87.3587ZM88.5144 63.0897H56.1557V56.1557H67.7123H88.5144V63.0897Z" fill="black"/>
<path d="M67.7123 74.6464H76.9577C78.2324 74.6464 79.269 73.6098 79.269 72.3351V67.7124H65.401V72.3351C65.401 73.6098 66.4376 74.6464 67.7123 74.6464ZM67.7123 70.0237H76.9577L76.9588 72.3351H67.7123V70.0237Z" fill="black"/>
<path d="M86.203 58.467H83.8917V60.7784H86.203V58.467Z" fill="black"/>
<path d="M81.5804 58.467H74.6464V60.7784H81.5804V58.467Z" fill="black"/>
<path d="M61.934 37.6649V33.0422H48.066V37.6649C48.066 38.9396 49.1026 39.9762 50.3773 39.9762H59.6227C60.8974 39.9762 61.934 38.9396 61.934 37.6649ZM50.3773 35.3536H59.6227L59.6238 37.6649H50.3773V35.3536Z" fill="black"/>
<path d="M68.868 23.7969H66.5567V26.1082H68.868V23.7969Z" fill="black"/>
<path d="M64.2453 23.7969H57.3113V26.1082H64.2453V23.7969Z" fill="black"/>
<rect x="50" y="35" width="10" height="3" fill="#F5EB05"/>
<rect x="33" y="70" width="9.3" height="2.33" fill="#F5EB05"/>
<rect x="67.7" y="70" width="9.3" height="2.33" fill="#F5EB05"/>
</svg>
