<?xml version="1.0" encoding="utf-8"?>
<!-- Generator: Adobe Illustrator 23.0.0, SVG Export Plug-In . SVG Version: 6.00 Build 0)  -->
<svg version="1.1" id="Слой_1" xmlns="http://www.w3.org/2000/svg" xmlns:xlink="http://www.w3.org/1999/xlink" x="0px" y="0px"
	 viewBox="0 0 110 110" style="enable-background:new 0 0 110 110;" xml:space="preserve">
<style type="text/css">
	.st0{fill:#F5EB05;stroke:#000000;stroke-width:3;stroke-miterlimit:10;}
	.st1{fill:none;stroke:#000000;stroke-width:3;stroke-miterlimit:10;}
</style>
<path class="st0" d="M99.33,54.53L86.47,29.82l-9.01,4.69l0.53,1.02c-0.79,0.46-3.56,1.96-5.91,1.55c-1.98-0.35-4.84-3.51-4.84-3.51
	s-1.83-2.02-4.77-2.5c-2.56-0.42-5.65,0.3-8.05,2.02L39.78,43.56c-1.31,0.94-1.61,2.77-0.68,4.08l1.28,1.78
	c0.94,1.31,2.77,1.61,4.08,0.68l12.24-8.86L80.98,67l8.57-9.27l0.78,1.49L99.33,54.53z"/>
<path class="st0" d="M35.5,65.9l-3.3,3.3c-0.59,0.59-1.56,0.59-2.15,0l-2.25-2.25c-0.59-0.59-0.59-1.56,0-2.15l3.3-3.3
	c0.59-0.59,1.56-0.59,2.15,0l2.25,2.25C36.09,64.34,36.09,65.31,35.5,65.9z"/>
<path class="st0" d="M46.74,68.27L39,76.02c-0.59,0.59-1.56,0.59-2.15,0l-2.25-2.25c-0.59-0.59-0.59-1.56,0-2.15l7.74-7.74
	c0.59-0.59,1.56-0.59,2.15,0l2.25,2.25C47.33,66.72,47.33,67.68,46.74,68.27z"/>
<path class="st0" d="M54.75,74l-8.62,8.62c-0.59,0.59-1.56,0.59-2.15,0l-2.25-2.25c-0.59-0.59-0.59-1.56,0-2.15l8.62-8.62
	c0.59-0.59,1.56-0.59,2.15,0l2.25,2.25C55.35,72.44,55.35,73.4,54.75,74z"/>
<path class="st0" d="M60.34,82.16L54.3,88.2c-0.59,0.59-1.56,0.59-2.15,0l-2.25-2.25c-0.59-0.59-0.59-1.56,0-2.15l6.04-6.04
	c0.59-0.59,1.56-0.59,2.15,0l2.25,2.25C60.93,80.6,60.93,81.57,60.34,82.16z"/>
<path class="st1" d="M59.95,82.25c0,0,2.56,1.69,5.09-0.07c1.67-1.17,1.44-3.77,1.44-3.77l-0.32-1.2c0,0,2.06,1.4,3.82,1.4
	c0.84,0,2.43-0.52,3.35-1.62c1.01-1.22,1.3-3.09,0.92-4.35c0,0,2.43,1.82,4.89,0.72C82.9,71.69,80.98,67,80.98,67"/>
<line class="st1" x1="58.64" y1="69.07" x2="66.38" y2="77.49"/>
<line class="st1" x1="65.52" y1="63.19" x2="74.08" y2="72.8"/>
<path class="st1" d="M53.25,33.92c0,0-4.48-3.82-9.77-1.3c-3.8,1.81-6.39,4.09-12.8,0.7l0.45-1.3l-10.68-3.71L11,55.5l10.68,3.71
	l0.79-2.28l5.63,5.74"/>
</svg>
