<svg viewBox="0 0 110 110" fill="none" xmlns="http://www.w3.org/2000/svg">
<path fill-rule="evenodd" clip-rule="evenodd" d="M27.3001 44.6512C25.1869 44.4261 23.0565 44.8685 21.2019 45.9176C19.3474 46.9667 17.8596 48.571 16.943 50.51C16.0265 52.449 15.7263 54.6275 16.0836 56.7461C16.4409 58.8647 17.4382 60.8193 18.9385 62.3414C20.4387 63.8635 22.3682 64.8782 24.4618 65.2461C26.5554 65.6141 28.7102 65.3171 30.6302 64.3962C32.5502 63.4752 34.141 61.9754 35.1839 60.1029C36.2269 58.2304 36.6709 56.0771 36.4548 53.9391C36.2171 51.5625 35.1769 49.3414 33.5095 47.6497C31.842 45.958 29.6492 44.8991 27.3001 44.6512ZM26.9668 60.5021C25.8303 60.6563 24.6745 60.4464 23.6619 59.9019C22.6494 59.3575 21.831 58.5058 21.3217 57.4666C20.8124 56.4274 20.6379 55.253 20.8227 54.1083C21.0075 52.9636 21.5423 51.9063 22.3519 51.0848C23.1615 50.2634 24.2052 49.7193 25.3364 49.5288C26.4676 49.3383 27.6293 49.5111 28.6584 50.023C29.6875 50.5348 30.5321 51.3599 31.0736 52.3823C31.615 53.4047 31.8262 54.573 31.6772 55.723C31.521 56.9326 30.9748 58.0564 30.1232 58.9203C29.2717 59.7843 28.1623 60.3402 26.9668 60.5021ZM41.9561 45.0628C41.5994 45.0637 41.2473 45.1449 40.9256 45.3007C40.6038 45.4565 40.3204 45.6829 40.0961 45.9635C39.8717 46.244 39.712 46.5715 39.6286 46.9223C39.5451 47.2731 39.5401 47.6383 39.6138 47.9914C39.8394 49.1351 40.8957 49.9165 42.0463 49.9165H48.7234L38.3322 63.8247C38.2554 63.9274 38.2083 64.0497 38.1963 64.1779C38.1844 64.3061 38.2079 64.4351 38.2644 64.5506C38.3209 64.666 38.408 64.7632 38.516 64.8314C38.6241 64.8995 38.7487 64.9359 38.8761 64.9364H55.1756C56.3255 64.9364 57.3824 64.1551 57.6081 63.0112C57.6818 62.6583 57.6768 62.2931 57.5934 61.9423C57.5101 61.5916 57.3505 61.264 57.1262 60.9835C56.902 60.703 56.6187 60.4765 56.297 60.3206C55.9754 60.1647 55.6234 60.0833 55.2667 60.0823H47.1311L57.5143 46.1849C57.5919 46.0812 57.6394 45.9577 57.6515 45.8282C57.6636 45.6988 57.6398 45.5685 57.5827 45.452C57.5256 45.3354 57.4376 45.2373 57.3285 45.1686C57.2193 45.0998 57.0934 45.0632 56.9649 45.0628H41.9561ZM107.088 45.1188C106.548 45.2486 106.069 45.5607 105.728 46.0036C105.388 46.4466 105.207 46.9937 105.216 47.5547V55.636L92.269 45.2154C92.1674 45.1339 92.0452 45.083 91.9164 45.0687C91.7875 45.0543 91.6573 45.077 91.5406 45.1342C91.424 45.1914 91.3256 45.2807 91.257 45.3919C91.1883 45.5031 91.152 45.6316 91.1524 45.7627V62.4488C91.1436 63.0098 91.3243 63.5569 91.6647 63.9999C92.0052 64.4428 92.4849 64.755 93.0245 64.8847C93.3749 64.9627 93.7382 64.9601 94.0875 64.8772C94.4368 64.7942 94.7632 64.633 95.0427 64.4054C95.3222 64.1779 95.5476 63.8898 95.7023 63.5623C95.857 63.2349 95.9371 62.8765 95.9366 62.5136V54.3624L108.884 64.7831C108.985 64.8646 109.107 64.9154 109.236 64.9298C109.365 64.9442 109.495 64.9215 109.612 64.8643C109.728 64.8072 109.827 64.7179 109.895 64.6067C109.964 64.4956 110 64.3671 110 64.2361V47.4891C110 47.1263 109.92 46.768 109.765 46.4407C109.611 46.1134 109.385 45.8254 109.106 45.5979C108.826 45.3704 108.5 45.2093 108.151 45.1263C107.802 45.0434 107.438 45.0408 107.088 45.1188ZM73.3776 49.4519C78.8539 49.4519 82.9457 52.3789 82.9457 54.9971C82.9457 57.6153 78.8539 60.5423 73.3776 60.5423C67.9014 60.5423 63.8096 57.6153 63.8096 54.9971C63.8096 52.3789 67.9014 49.4519 73.3776 49.4519ZM73.3776 44.5984C65.451 44.5984 59.0254 49.2541 59.0254 54.9971C59.0254 60.7401 65.451 65.3959 73.3776 65.3959C81.3043 65.3959 87.7297 60.7401 87.7297 54.9971C87.7297 49.2541 81.3041 44.5984 73.3776 44.5984Z" fill="black"/>
</svg>
