<svg viewBox="0 0 110 110" fill="none" xmlns="http://www.w3.org/2000/svg">
<path d="M53.3486 83.4705H42.1543C41.4616 83.4705 40.8998 84.0219 40.8998 84.7023C40.8998 85.3826 41.4614 85.9342 42.1543 85.9342H53.3486C54.0413 85.9342 54.6031 85.3827 54.6031 84.7023C54.6031 84.0219 54.0415 83.4705 53.3486 83.4705Z" fill="black"/>
<path d="M53.3486 61.447H30.96C30.2673 61.447 29.7055 61.9985 29.7055 62.6789C29.7055 63.3591 30.2671 63.9108 30.96 63.9108H53.3486C54.0413 63.9108 54.6031 63.3593 54.6031 62.6789C54.6031 61.9987 54.0415 61.447 53.3486 61.447Z" fill="black"/>
<path d="M53.3486 67.1462H30.96C30.2673 67.1462 29.7055 67.6977 29.7055 68.3781C29.7055 69.0583 30.2671 69.61 30.96 69.61H53.3486C54.0413 69.61 54.6031 69.0585 54.6031 68.3781C54.6031 67.6977 54.0415 67.1462 53.3486 67.1462Z" fill="black"/>
<path d="M53.3486 72.8452H30.96C30.2673 72.8452 29.7055 73.3967 29.7055 74.0771C29.7055 74.7575 30.2671 75.3089 30.96 75.3089H53.3486C54.0413 75.3089 54.6031 74.7575 54.6031 74.0771C54.6031 73.3967 54.0415 72.8452 53.3486 72.8452Z" fill="black"/>
<path d="M86.2643 45.6001C85.5266 45.6001 84.9283 46.1516 84.9283 46.832V73.821H78.9359C78.1982 73.821 77.6 74.3725 77.6 75.0529C77.6 75.7331 78.1981 76.2847 78.9359 76.2847H86.2641C87.0018 76.2847 87.6 75.7332 87.6 75.0529V46.832C87.6002 46.1517 87.0021 45.6001 86.2643 45.6001Z" fill="black"/>
<path d="M87.397 35.5V29.1062C87.397 28.7796 87.2648 28.4662 87.0295 28.2352L79.0107 20.3609C78.7753 20.1298 78.4563 20 78.1236 20H46.9454C46.2527 20 45.6909 20.5515 45.6909 21.2319V38.0202H33.042C32.3493 38.0202 31.7875 38.5716 31.7875 39.252C31.7875 39.9324 32.3491 40.4839 33.042 40.4839H42.3884V53.5201C42.3884 54.2004 42.9499 54.752 43.6429 54.752H59.197V91.8609H22.5088V40.4838H28.0244C28.7171 40.4838 29.2789 39.9323 29.2789 39.2519C29.2789 38.5715 28.7173 38.02 28.0244 38.02H21.2545C20.5617 38.02 20 38.5715 20 39.2519V93.0925C20 93.7727 20.5616 94.3243 21.2545 94.3243H60.4516C61.1443 94.3243 61.7061 93.7728 61.7061 93.0925V76.3042H74.2437C74.9364 76.3042 75.4981 75.7527 75.4981 75.0723C75.4981 74.392 74.9365 73.8404 74.2437 73.8404H61.7061V53.52V47.1263C61.7061 46.7997 61.5739 46.4863 61.3386 46.2554L53.3198 38.381C53.0846 38.1499 52.7654 38.0202 52.4328 38.0202H48.2V22.4636H68.0798V35.4998C68.0798 36.1801 68.6414 36.7317 69.3343 36.7317H84.8883V41.9242C84.8883 42.6045 85.4499 43.1561 86.1428 43.1561C86.8355 43.1561 87.3973 42.6046 87.3973 41.9242L87.397 35.5ZM51.913 40.4838L59.1971 47.6366V52.2883H44.8975V40.4838H46.9455H51.913ZM84.8882 34.2681H70.5886V22.4636H77.6042L84.8882 29.6163V34.2681Z" fill="black"/>
<path d="M77.65 22.5L84.8813 29.625H70.4187L77.65 22.5Z" fill="#F5EB05"/>
<rect x="70" y="22.45" width="7.6" height="11.83" fill="#F5EB05"/>
<rect x="77" y="29.6001" width="7.88" height="4.68" fill="#F5EB05"/>
</svg>
