<svg id="Слой_1" data-name="Слой 1" xmlns="http://www.w3.org/2000/svg" viewBox="0 0 110 110"><defs><style>.cls-1{fill:#f5eb05;}.cls-2{fill:none;stroke:#000;stroke-linejoin:bevel;stroke-width:3px;}</style></defs><title>icon6</title><path class="cls-1" d="M55,74.67,45.7,67.5H39.5a10,10,0,0,0-8.33,5.83c-3,5.84-3.84,7-4.84,13,0,0,28.17,15,56.5,0,0,0-1.58-9.83-5-14.07-3-3.78-5.85-4.76-7.43-4.76H63.67L55,74.67"/><path class="cls-2" d="M71.46,43c-23-.67-25.63-10.11-25.63-10.11A14.84,14.84,0,0,1,38.33,44"/><path class="cls-2" d="M38.33,44S37.5,56.33,51,57.33"/><rect x="49.99" y="54" width="10.06" height="6.62" rx="3.26"/><path class="cls-2" d="M72.07,44.41A23.34,23.34,0,0,0,72.33,41c0-10.95-6-17.83-17.16-17.83S38,30.05,38,41a23.49,23.49,0,0,0,.2,3c0,.09,0,.19,0,.28-1.55.67-2.38,2.85-1.87,5.16.46,2.06,3.19,4.25,5.18,4.76,3.25,6,8.34,10.63,13.62,10.63,5.09,0,10.25-4.63,13.56-10.7,2-.62,4.49-2.71,4.93-4.69C74.15,47.26,73.44,45.21,72.07,44.41Z"/><path class="cls-2" d="M45.7,60V67.5H39.5a10,10,0,0,0-8.33,5.83c-3,5.84-3.84,7-4.84,13,0,0,28.17,15,56.5,0,0,0-1.58-9.83-5-14.07-3-3.78-5.85-4.76-7.43-4.76H63.67V61.14"/><polyline class="cls-2" points="44.83 67.5 55 74.67 64.17 67.5"/></svg>