<svg id="Слой_1" data-name="Слой 1" xmlns="http://www.w3.org/2000/svg" viewBox="0 0 110 110"><defs><style>.cls-1{fill:none;}.cls-1,.cls-2,.cls-3{stroke:#000;stroke-width:3px;}.cls-1,.cls-2{stroke-miterlimit:10;}.cls-2,.cls-3{fill:#f5eb05;}.cls-3{stroke-linejoin:round;}</style></defs><title>icon5</title><polygon class="cls-1" points="41.32 87 90.32 87 90.32 53.39 37.55 53.39 41.32 87"/><polygon class="cls-2" points="19.33 87 25.3 27.63 34.72 27.63 41.32 87 19.33 87"/><rect class="cls-1" x="46.35" y="58.73" width="13.51" height="13.51"/><rect class="cls-1" x="68.02" y="58.73" width="13.51" height="13.51"/><path class="cls-3" d="M35.51,22.29a23.07,23.07,0,0,1,12.56-3.35c7.86,0,12.6,4,17.59,4.61a35.82,35.82,0,0,0,9.11,0s-6,5.34-13.66,5.34c-5.65,0-12.2-3.38-16.18-4.71A60,60,0,0,0,35.51,22.29Z"/></svg>