<svg id="Слой_1" data-name="Слой 1" xmlns="http://www.w3.org/2000/svg" viewBox="0 0 110 110"><defs><style>.cls-1{fill:#f5eb05;}.cls-2{fill:none;stroke:#000;stroke-linejoin:bevel;stroke-width:3px;}.cls-3{fill:#1d1d1b;}</style></defs><title>icon1</title><polygon class="cls-1" points="72.99 66.38 72.99 22.32 30.97 22.32 30.97 66.38 23.22 66.38 51.98 86.11 80.74 66.38 72.99 66.38"/><polygon class="cls-2" points="72.99 66.38 72.99 22.32 30.97 22.32 30.97 66.38 23.22 66.38 51.98 86.11 80.74 66.38 72.99 66.38"/><path class="cls-3" d="M64.75,39.9c0-5.76-2.14-9.31-10.93-9.31H46.18c-.73,0-.79.1-.79.83V46.18H42.05c-.74,0-.84.1-.84.89v2.77c0,.73,0,.94.84.94h3.34v4H42.05c-.74,0-.84.1-.84.89V58c0,.73,0,.94.84.94h3.34v5.13c0,.73.06.84.79.84h3.56c.68,0,.89-.11.89-.84V58.94H57c.78,0,.83-.21.83-.94V55.7c0-.79-.1-.89-.83-.89H50.63v-4h3.24c6.33,0,10.88-3.71,10.88-10.88m-5.34.26c0,4.5-2.3,6-6.22,6H50.63V34.82h2.82C57.85,34.82,59.41,36.13,59.41,40.16Z"/><polyline class="cls-2" points="60.02 89.68 88.78 69.96 81.03 69.96 81.03 25.89"/></svg>