<svg id="Слой_1" data-name="Слой 1" xmlns="http://www.w3.org/2000/svg" viewBox="0 0 110 110"><defs><style>.cls-1{fill:#f5eb05;}</style></defs><title>icon2</title><path d="M50.06,81.31A6.91,6.91,0,1,1,57,74.4,6.92,6.92,0,0,1,50.06,81.31Zm0-11a4,4,0,1,0,4,4.05A4,4,0,0,0,50.06,70.35Z"/><path d="M94.09,81.31A6.91,6.91,0,1,1,101,74.4,6.92,6.92,0,0,1,94.09,81.31Zm0-11a4,4,0,1,0,4,4.05A4.05,4.05,0,0,0,94.09,70.35Z"/><rect x="14.92" y="35.79" width="23.21" height="2.86"/><rect x="23.11" y="67.38" width="15.02" height="2.86"/><rect x="13.75" y="67.38" width="3.51" height="2.86"/><rect x="3.21" y="51" width="25.35" height="2.86"/><path class="cls-1" d="M38.12,32.54V73.1h6.63a5.46,5.46,0,0,1,10.61,0H81.61V32.54Z"/><path d="M83,74.54H54.24L54,73.44a4,4,0,0,0-7.83,0l-.27,1.1H36.69V31.11H83ZM56.39,71.67H80.18V34H39.55v37.7h4.17a6.89,6.89,0,0,1,12.67,0Z"/><path d="M108,74.54H98.27L98,73.44a4,4,0,0,0-3.92-3.09V67.49a6.88,6.88,0,0,1,6.34,4.18h4.71V57.82l-11-13.51H82.72V41.45H95.55L108,56.81Z"/><rect x="80.18" y="42.88" width="2.86" height="30.23"/></svg>